<?xml version="1.0" encoding="UTF-8"?>
<svg height="128px" viewBox="0 0 128 128" width="128px" xmlns="http://www.w3.org/2000/svg" xmlns:xlink="http://www.w3.org/1999/xlink">
    <radialGradient id="a" cx="66.351357" cy="215.690948" gradientTransform="matrix(1.267811 0 0 1.316795 -17.769594 -241.114555)" gradientUnits="userSpaceOnUse" r="57.147449">
        <stop offset="0" stop-color="#f6f5f4"/>
        <stop offset="0.826966" stop-color="#c9c8c5"/>
        <stop offset="1" stop-color="#e1e1e1"/>
    </radialGradient>
    <linearGradient id="b" gradientUnits="userSpaceOnUse">
        <stop offset="0" stop-color="#fdfacf"/>
        <stop offset="0.4" stop-color="#f9f06b"/>
        <stop offset="1" stop-color="#f6d32d"/>
    </linearGradient>
    <linearGradient id="c" gradientTransform="matrix(0.376795 -0.376795 0.376795 0.376795 -37.010773 -4.914297)" x1="160.234024" x2="160.234024" xlink:href="#b" y1="218.688614" y2="257.980621"/>
    <linearGradient id="d" gradientUnits="userSpaceOnUse">
        <stop offset="0" stop-color="#f5c211"/>
        <stop offset="1" stop-color="#f5c211" stop-opacity="0"/>
    </linearGradient>
    <radialGradient id="e" cx="107.50499" cy="217.035126" gradientTransform="matrix(5.443289 0.0167383 -0.0118364 3.849196 -474.611847 -814.383657)" r="2.35742" xlink:href="#d"/>
    <filter id="f" height="100%" width="100%" x="0%" y="0%">
        <feColorMatrix in="SourceGraphic" type="matrix" values="0 0 0 0 1 0 0 0 0 1 0 0 0 0 1 0 0 0 1 0"/>
    </filter>
    <mask id="g">
        <g filter="url(#f)">
            <rect fill-opacity="0.442" height="128" width="128"/>
        </g>
    </mask>
    <linearGradient id="h" gradientUnits="userSpaceOnUse">
        <stop offset="0" stop-color="#fefbee"/>
        <stop offset="1" stop-color="#f6ce43" stop-opacity="0.925197"/>
    </linearGradient>
    <radialGradient id="i" cx="104.183548" cy="209.276962" gradientTransform="matrix(1.59822 0 0 1.662441 -61.748764 -327.676702)" r="9.074218" xlink:href="#h"/>
    <clipPath id="j">
        <rect height="128" width="128"/>
    </clipPath>
    <linearGradient id="k" gradientTransform="matrix(0.269905 -0.269905 0.269905 0.269905 -9.873905 34.436936)" x1="160.234024" x2="160.234024" xlink:href="#b" y1="218.688614" y2="257.980621"/>
    <radialGradient id="l" cx="107.50499" cy="217.035126" gradientTransform="matrix(3.899127 0.01199 -0.00847864 2.75725 -323.335567 -545.400788)" r="2.35742" xlink:href="#d"/>
    <mask id="m">
        <g filter="url(#f)">
            <rect fill-opacity="0.442" height="128" width="128"/>
        </g>
    </mask>
    <radialGradient id="n" cx="104.183548" cy="209.276962" gradientTransform="matrix(1.144834 0 0 1.190837 -27.594181 -196.763685)" r="9.074218" xlink:href="#h"/>
    <clipPath id="o">
        <rect height="128" width="128"/>
    </clipPath>
    <path d="m 63.851562 4.644531 c -32.78125 0 -59.355468 26.574219 -59.355468 59.355469 s 26.574218 59.355469 59.355468 59.355469 c 24.105469 0 45.816407 -14.578125 54.9375 -36.894531 c -2.679687 0.503906 -5.402343 0.753906 -8.128906 0.753906 c -24.472656 0 -44.308594 -19.839844 -44.308594 -44.308594 c 0 -13.65625 6.296876 -26.546875 17.0625 -34.945312 c -6.289062 -2.195313 -12.902343 -3.316407 -19.5625 -3.316407 z m 0 0" fill="url(#a)"/>
    <path d="m 80.65625 7.074219 c -9.117188 8.390625 -14.304688 20.210937 -14.304688 32.601562 c 0 0.535157 0.011719 1.066407 0.027344 1.601563 c 0.484375 -13.074219 6.71875 -25.269532 17.039063 -33.316406 c -0.914063 -0.316407 -1.835938 -0.613282 -2.761719 -0.886719 z m -76.136719 55.316406 c -0.015625 0.539063 -0.023437 1.074219 -0.023437 1.609375 c 0 32.78125 26.574218 59.355469 59.355468 59.355469 c 24.105469 0 45.816407 -14.578125 54.941407 -36.890625 c -0.519531 0.09375 -1.042969 0.183594 -1.5625 0.261718 c -9.9375 20.429688 -30.660157 33.398438 -53.378907 33.398438 c -32.148437 0 -58.453124 -25.597656 -59.332031 -57.734375 z m 0 0" fill="#deddda"/>
    <path d="m 126.148438 21 l -13.433594 4.714844 l -4.714844 13.433594 l -4.714844 -13.433594 l -13.433594 -4.714844 l 13.433594 -4.714844 l 4.714844 -13.433594 l 4.714844 13.433594 z m 0 0" fill="url(#c)"/>
    <path d="m 108 21 l 4.714844 4.714844 l 13.433594 -4.714844 z m 0 0" fill="#f5c211"/>
    <path d="m 108 21 l -4.714844 4.714844 l -13.433594 -4.714844 z m 0 0" fill="#f5c211"/>
    <path d="m 108 21 l 4.714844 4.714844 l -4.714844 13.433594 z m 0 0" fill="url(#e)"/>
    <path d="m 108 21 l 4.714844 -4.714844 l -4.714844 -13.433594 z m 0 0" fill="#f5c211" fill-opacity="0.488189"/>
    <g clip-path="url(#j)" mask="url(#g)">
        <path d="m 108 21 l -4.714844 -4.714844 l -13.433594 4.714844 z m 0 0" fill="url(#i)"/>
    </g>
    <path d="m 107 53 l -9.621094 3.378906 l -3.378906 9.621094 l -3.378906 -9.621094 l -9.621094 -3.378906 l 9.621094 -3.378906 l 3.378906 -9.621094 l 3.378906 9.621094 z m 0 0" fill="url(#k)"/>
    <path d="m 94 53 l 3.378906 3.378906 l 9.621094 -3.378906 z m 0 0" fill="#f5c211"/>
    <path d="m 94 53 l -3.378906 3.378906 l -9.621094 -3.378906 z m 0 0" fill="#f5c211"/>
    <path d="m 94 53 l 3.378906 3.378906 l -3.378906 9.621094 z m 0 0" fill="url(#l)"/>
    <path d="m 94 53 l 3.378906 -3.378906 l -3.378906 -9.621094 z m 0 0" fill="#f5c211" fill-opacity="0.488189"/>
    <g clip-path="url(#o)" mask="url(#m)">
        <path d="m 94 53 l -3.378906 -3.378906 l -9.621094 3.378906 z m 0 0" fill="url(#n)"/>
    </g>
</svg>
