<?xml version="1.0" encoding="UTF-8"?>
<svg height="128px" viewBox="0 0 128 128" width="128px" xmlns="http://www.w3.org/2000/svg" xmlns:xlink="http://www.w3.org/1999/xlink">
    <linearGradient id="a" gradientUnits="userSpaceOnUse" x1="96" x2="104" y1="83" y2="83">
        <stop offset="0" stop-color="#f6f5f4"/>
        <stop offset="0.5" stop-color="#f6f5f4"/>
        <stop offset="1" stop-color="#c0bfbc"/>
    </linearGradient>
    <filter id="b" height="100%" width="100%" x="0%" y="0%">
        <feColorMatrix in="SourceGraphic" type="matrix" values="0 0 0 0 1 0 0 0 0 1 0 0 0 0 1 0 0 0 1 0"/>
    </filter>
    <mask id="c">
        <g filter="url(#b)">
            <rect fill-opacity="0.3" height="128" width="128"/>
        </g>
    </mask>
    <clipPath id="d">
        <rect height="152" width="192"/>
    </clipPath>
    <mask id="e">
        <g filter="url(#b)">
            <rect fill-opacity="0.1" height="128" width="128"/>
        </g>
    </mask>
    <clipPath id="f">
        <rect height="152" width="192"/>
    </clipPath>
    <mask id="g">
        <g filter="url(#b)">
            <rect fill-opacity="0.3" height="128" width="128"/>
        </g>
    </mask>
    <clipPath id="h">
        <rect height="152" width="192"/>
    </clipPath>
    <path d="m 24 28 v 92 h 72 c 4.433594 0 8 -3.566406 8 -8 v -76 c 0 -4.433594 -3.566406 -8 -8 -8 z m 0 0" fill="#a51d2d"/>
    <path d="m 26 48 v 70 h 70 c 4.433594 0 8 -3.566406 8 -8 v -54 c 0 -4.433594 -3.566406 -8 -8 -8 z m 0 0" fill="url(#a)"/>
    <path d="m 24 16 v 66 h 72 c 4.433594 0 8 -3.566406 8 -8 v -50 c 0 -4.433594 -3.566406 -8 -8 -8 z m 0 0" fill="#a51d2d"/>
    <path d="m 24 8 v 72 h 72 c 4.433594 0 8 -3.566406 8 -8 v -56 c 0 -4.433594 -3.566406 -8 -8 -8 z m 0 0" fill="#c01c28"/>
    <path d="m 24 20.125 h 80 v 48 h -80 z m 0 0" fill="#f66151"/>
    <g clip-path="url(#d)" mask="url(#c)" transform="matrix(1 0 0 1 -8 -16)">
        <path d="m 34 24 h 2 v 72 h -2 z m 0 0" fill="#ffffff"/>
    </g>
    <g clip-path="url(#f)" mask="url(#e)" transform="matrix(1 0 0 1 -8 -16)">
        <path d="m 236 223.5 h 104 m -128 -16 h 65.5 m -33.5 -16 h 128 m -152 -16 h 128" stroke="#000000" stroke-linecap="round" stroke-width="8" transform="matrix(0.25 0 0 0.25 8 69.125)"/>
    </g>
    <path d="m 32 88.125 h 16 v 20 l -8 -7 l -8 7 z m 0 0" fill="#f5c211"/>
    <g fill="#a51d2d">
        <path d="m 39.945312 32 c 4.980469 0 8.601563 0.960938 10.859376 2.878906 c 2.261718 1.917969 3.390624 4.964844 3.390624 9.140625 c 0 4.171875 -1.140624 7.21875 -3.425781 9.136719 c -2.285156 1.894531 -5.964843 2.84375 -11.042969 2.84375 h -7.726562 l 0.144531 -1.476562 c 0.777344 -0.167969 1.460938 -0.515626 2.042969 -1.042969 v -18.960938 c -0.4375 -0.410156 -1.167969 -0.78125 -2.1875 -1.117187 l 0.144531 -1.402344 z m 1.167969 2.230469 h -1.53125 v 19.394531 c 0.21875 0.097656 0.691407 0.144531 1.421875 0.144531 c 2.621094 0 4.519532 -0.78125 5.683594 -2.339843 c 1.191406 -1.558594 1.785156 -4.042969 1.785156 -7.449219 c 0 -3.429688 -0.570312 -5.910157 -1.710937 -7.445313 c -1.144531 -1.535156 -3.027344 -2.304687 -5.648438 -2.304687 z m 0 0"/>
        <path d="m 65.128906 53.769531 h 6.378906 c 0.777344 -1.152343 1.347657 -2.675781 1.714844 -4.570312 c 0.484375 -0.070313 0.957032 -0.109375 1.417969 -0.109375 c 0.464844 0 0.886719 0.039062 1.277344 0.109375 l -0.363281 6.800781 h -18.003907 l 0.144531 -1.476562 c 0.945313 -0.144532 1.640626 -0.441407 2.078126 -0.898438 v -19.070312 c -0.390626 -0.335938 -1.144532 -0.695313 -2.261719 -1.078126 l 0.183593 -1.476562 h 10.167969 l -0.21875 1.476562 c -1.042969 0.191407 -1.882812 0.550782 -2.515625 1.078126 z m 0 0"/>
        <path d="m 95.597656 37.9375 c -0.558594 0.167969 -1.019531 0.25 -1.382812 0.25 c -0.339844 0 -0.777344 -0.046875 -1.3125 -0.140625 c -0.363282 -1.65625 -0.886719 -2.941406 -1.566406 -3.851563 h -6.125 v 8.527344 l 3.390624 -0.25 c 0.4375 -0.050781 0.839844 -0.289062 1.203126 -0.722656 c 0.386718 -0.429688 0.667968 -0.996094 0.835937 -1.691406 h 1.898437 v 7.449218 h -1.898437 c -0.339844 -0.960937 -0.667969 -1.628906 -0.980469 -2.015624 c -0.316406 -0.382813 -0.683594 -0.597657 -1.09375 -0.648438 l -3.355468 -0.285156 v 9.210937 h 6.378906 c 0.777344 -1.152343 1.347656 -2.675781 1.714844 -4.570312 c 0.507812 -0.070313 0.980468 -0.109375 1.417968 -0.109375 c 0.464844 0 0.886719 0.039062 1.277344 0.109375 l -0.363281 6.800781 h -18.003907 l 0.144532 -1.476562 c 0.945312 -0.144532 1.640625 -0.441407 2.078125 -0.898438 v -19.25 c -0.585938 -0.503906 -1.324219 -0.851562 -2.222657 -1.042969 l 0.109376 -1.332031 h 17.710937 z m 0 0"/>
    </g>
    <g clip-path="url(#h)" mask="url(#g)" transform="matrix(1 0 0 1 -8 -16)">
        <path d="m 170.96875 27.054688 h 8.96875 l 2.03125 -2 v 4 s -0.785156 1 -2 1 h -9 z m 0 0" fill="#3d3846"/>
    </g>
</svg>
