<?xml version="1.0" encoding="UTF-8"?>
<svg height="128px" viewBox="0 0 128 128" width="128px" xmlns="http://www.w3.org/2000/svg" xmlns:xlink="http://www.w3.org/1999/xlink">
    <linearGradient id="a" gradientUnits="userSpaceOnUse" x1="36" x2="98" y1="112" y2="111.870819">
        <stop offset="0" stop-color="#5e5c64"/>
        <stop offset="0.058645" stop-color="#878491"/>
        <stop offset="0.143736" stop-color="#5e5c64"/>
        <stop offset="0.849022" stop-color="#5e5c64"/>
        <stop offset="0.940255" stop-color="#6c6a73"/>
        <stop offset="1" stop-color="#343338"/>
    </linearGradient>
    <clipPath id="b">
        <path d="m 35 74 h 63 v 36 h -63 z m 0 0"/>
    </clipPath>
    <clipPath id="c">
        <path d="m 49.78125 74.367188 h 34.386719 c 7.640625 0 13.832031 6.195312 13.832031 13.832031 v 7.96875 c 0 7.640625 -6.191406 13.832031 -13.832031 13.832031 h -34.386719 c -7.640625 0 -13.832031 -6.191406 -13.832031 -13.832031 v -7.96875 c 0 -7.636719 6.191406 -13.832031 13.832031 -13.832031 z m 0 0"/>
    </clipPath>
    <linearGradient id="d" gradientUnits="userSpaceOnUse" x1="89" x2="87.649246" y1="92" y2="103.491241">
        <stop offset="0" stop-color="#454545"/>
        <stop offset="0.404065" stop-color="#38353f"/>
        <stop offset="1" stop-color="#77767b"/>
    </linearGradient>
    <clipPath id="e">
        <path d="m 35 74 h 25 v 36 h -25 z m 0 0"/>
    </clipPath>
    <clipPath id="f">
        <path d="m 49.78125 74.367188 h 34.386719 c 7.640625 0 13.832031 6.195312 13.832031 13.832031 v 7.96875 c 0 7.640625 -6.191406 13.832031 -13.832031 13.832031 h -34.386719 c -7.640625 0 -13.832031 -6.191406 -13.832031 -13.832031 v -7.96875 c 0 -7.636719 6.191406 -13.832031 13.832031 -13.832031 z m 0 0"/>
    </clipPath>
    <linearGradient id="g" gradientUnits="userSpaceOnUse" x1="44" x2="48" y1="96" y2="88">
        <stop offset="0" stop-color="#77767b"/>
        <stop offset="1" stop-color="#241f31"/>
    </linearGradient>
    <clipPath id="h">
        <path d="m 44 77 h 46 v 33 h -46 z m 0 0"/>
    </clipPath>
    <clipPath id="i">
        <path d="m 49.78125 74.367188 h 34.386719 c 7.640625 0 13.832031 6.195312 13.832031 13.832031 v 7.96875 c 0 7.640625 -6.191406 13.832031 -13.832031 13.832031 h -34.386719 c -7.640625 0 -13.832031 -6.191406 -13.832031 -13.832031 v -7.96875 c 0 -7.636719 6.191406 -13.832031 13.832031 -13.832031 z m 0 0"/>
    </clipPath>
    <linearGradient id="j" gradientTransform="matrix(-0.708333 0 0 1 117.666672 -174.660249)" gradientUnits="userSpaceOnUse" x1="74" x2="74" y1="266" y2="279">
        <stop offset="0" stop-color="#3d3846"/>
        <stop offset="1" stop-color="#77767b"/>
    </linearGradient>
    <linearGradient id="k" gradientUnits="userSpaceOnUse" x1="24" x2="108" y1="89.382172" y2="89.382172">
        <stop offset="0" stop-color="#8b8893"/>
        <stop offset="0.0143736" stop-color="#bfbbce"/>
        <stop offset="0.0373841" stop-color="#888591"/>
        <stop offset="0.0698814" stop-color="#726f79"/>
        <stop offset="0.0952381" stop-color="#888591"/>
        <stop offset="0.142857" stop-color="#b9b5c8"/>
        <stop offset="0.189877" stop-color="#888591"/>
        <stop offset="0.849022" stop-color="#898692"/>
        <stop offset="0.940255" stop-color="#b9b5c5"/>
        <stop offset="1" stop-color="#343338"/>
    </linearGradient>
    <linearGradient id="l" gradientTransform="matrix(1 0 0 0.65598 0 -89.627457)" gradientUnits="userSpaceOnUse" x1="18" x2="18" y1="224" y2="241.855728">
        <stop offset="0" stop-color="#8b8893"/>
        <stop offset="0.43147" stop-color="#bebacd"/>
        <stop offset="1" stop-color="#8b8893"/>
    </linearGradient>
    <linearGradient id="m" gradientUnits="userSpaceOnUse" x1="24" x2="107.999992" y1="82" y2="82">
        <stop offset="0" stop-color="#b7b3c2"/>
        <stop offset="0.0141363" stop-color="#ddd8eb"/>
        <stop offset="0.0489949" stop-color="#b7b3c2"/>
        <stop offset="0.0790956" stop-color="#96939f"/>
        <stop offset="0.124125" stop-color="#ece8fa"/>
        <stop offset="0.188625" stop-color="#b7b3c2"/>
        <stop offset="0.87631" stop-color="#b7b3c2"/>
        <stop offset="0.946152" stop-color="#e1dcee"/>
        <stop offset="1" stop-color="#b7b3c2"/>
    </linearGradient>
    <radialGradient id="n" cx="56" cy="243.890442" gradientTransform="matrix(0.996699 0.00000013 -0.0000001 0.730913 0.18487 -116.262665)" gradientUnits="userSpaceOnUse" r="40.132465">
        <stop offset="0" stop-color="#ffffff" stop-opacity="0.466667"/>
        <stop offset="1" stop-color="#ffffff" stop-opacity="0.105882"/>
    </radialGradient>
    <linearGradient id="o" gradientUnits="userSpaceOnUse" x1="20" x2="27" y1="59" y2="61">
        <stop offset="0" stop-color="#ffffff" stop-opacity="0.670588"/>
        <stop offset="1" stop-color="#ffffff" stop-opacity="0"/>
    </linearGradient>
    <radialGradient id="p" cx="57.5" cy="231" gradientTransform="matrix(1.243902 0 0 0.707317 -14.02439 -102.890244)" gradientUnits="userSpaceOnUse" r="20.5">
        <stop offset="0" stop-color="#f9f06b"/>
        <stop offset="1" stop-color="#f9f06b" stop-opacity="0"/>
    </radialGradient>
    <clipPath id="q">
        <path d="m 54 30 h 66 v 17 h -66 z m 0 0"/>
    </clipPath>
    <clipPath id="r">
        <path d="m 62 30.023438 h 50 c 4.417969 0 8 3.582031 8 8 c 0 4.417968 -3.582031 8 -8 8 h -50 c -4.417969 0 -8 -3.582032 -8 -8 c 0 -4.417969 3.582031 -8 8 -8 z m 0 0"/>
    </clipPath>
    <radialGradient id="s" cx="89" cy="182.900894" gradientTransform="matrix(0.878788 0 0 0.242424 10.787879 -14.339618)" gradientUnits="userSpaceOnUse" r="33">
        <stop offset="0" stop-color="#ff9236"/>
        <stop offset="1" stop-color="#b5835a"/>
    </radialGradient>
    <clipPath id="t">
        <path d="m 54 34 h 66 v 13 h -66 z m 0 0"/>
    </clipPath>
    <clipPath id="u">
        <path d="m 62 30.023438 h 50 c 4.417969 0 8 3.582031 8 8 c 0 4.417968 -3.582031 8 -8 8 h -50 c -4.417969 0 -8 -3.582032 -8 -8 c 0 -4.417969 3.582031 -8 8 -8 z m 0 0"/>
    </clipPath>
    <linearGradient id="v" gradientUnits="userSpaceOnUse" x1="96" x2="96" y1="40.02403" y2="46.02403">
        <stop offset="0" stop-color="#865e3c"/>
        <stop offset="1" stop-color="#66462e"/>
    </linearGradient>
    <linearGradient id="w" gradientUnits="userSpaceOnUse" x1="42.495007" x2="42.495007" y1="30.02403" y2="46.02403">
        <stop offset="0" stop-color="#865e3c"/>
        <stop offset="0.285762" stop-color="#b5835a"/>
        <stop offset="1" stop-color="#66462e"/>
    </linearGradient>
    <linearGradient id="x" gradientUnits="userSpaceOnUse" x1="44.179985" x2="72.999977" y1="26.815765" y2="26.815765">
        <stop offset="0" stop-color="#9a9996"/>
        <stop offset="0.286599" stop-color="#b8b7b4"/>
        <stop offset="0.791156" stop-color="#9a9996"/>
        <stop offset="0.901462" stop-color="#d4d3cf"/>
        <stop offset="1" stop-color="#585855"/>
    </linearGradient>
    <path d="m 51.242188 82.367188 h 31.46875 c 8.441406 0 15.289062 6.847656 15.289062 15.292968 v 5.050782 c 0 8.441406 -6.847656 15.289062 -15.289062 15.289062 h -31.46875 c -8.445313 0 -15.292969 -6.847656 -15.292969 -15.289062 v -5.050782 c 0 -8.445312 6.847656 -15.292968 15.292969 -15.292968 z m 0 0" fill="url(#a)" fill-rule="evenodd"/>
    <g clip-path="url(#b)">
        <g clip-path="url(#c)">
            <path d="m 47.949219 74.367188 h 38.050781 c 6.628906 0 12 5.375 12 12 v 11.632812 c 0 6.628906 -5.371094 12 -12 12 h -38.050781 c -6.625 0 -12 -5.371094 -12 -12 v -11.632812 c 0 -6.625 5.375 -12 12 -12 z m 0 0" fill="url(#d)" fill-rule="evenodd"/>
        </g>
    </g>
    <g clip-path="url(#e)">
        <g clip-path="url(#f)">
            <path d="m 26 72 h 22 c 6.628906 0 12 5.371094 12 12 v 16 c 0 6.628906 -5.371094 12 -12 12 h -22 c -6.628906 0 -12 -5.371094 -12 -12 v -16 c 0 -6.628906 5.371094 -12 12 -12 z m 0 0" fill="url(#g)" fill-rule="evenodd"/>
        </g>
    </g>
    <g clip-path="url(#h)">
        <g clip-path="url(#i)">
            <path d="m 89.332031 109.339844 l -11.332031 -32 h -22.667969 l -11.332031 32 z m 0 0" fill="url(#j)"/>
        </g>
    </g>
    <path d="m 8 60 v -4 h 38 v 26 h -16 c -12.148438 0 -22 -9.851562 -22 -22 z m 0 0" fill="#8b8893" fill-rule="evenodd"/>
    <path d="m 42.96875 46.460938 c -6.105469 0 -11.019531 4.914062 -11.019531 11.019531 v 14.519531 h -7.949219 v 11 c 0 1.65625 1.34375 3 3 3 c 9 0 2.578125 10 15.96875 10 h 54.015625 c 6.101563 0 11.015625 -4.914062 11.015625 -11.019531 v -27.5 c 0 -6.105469 -4.914062 -11.019531 -11.015625 -11.019531 z m 0 0" fill="url(#k)" fill-rule="evenodd"/>
    <path d="m 8 56 h 38 v 15.742188 h -16 c -10.421875 1.730468 -20.273438 -5.320313 -22 -15.742188 z m 0 0" fill="url(#l)" fill-rule="evenodd"/>
    <path d="m 40.660156 46 c -4.824218 0 -8.710937 3.886719 -8.710937 8.710938 v 0.367187 c 0 1.613281 -1.308594 2.921875 -2.921875 2.921875 h -5.027344 v 14 c 0 1.105469 0.894531 2 2 2 l 3.09375 0.003906 c 1.578125 0 2.796875 1.328125 3.339844 2.796875 c 1.183594 3.21875 4.410156 5.199219 8.226562 5.199219 h 58.628906 c 4.824219 0 8.710938 -3.886719 8.710938 -8.710938 v -18.578124 c 0 -4.824219 -3.886719 -8.710938 -8.710938 -8.710938 z m 0 0" fill="url(#m)" fill-rule="evenodd"/>
    <path d="m 40.660156 44 c -4.824218 0 -8.710937 3.886719 -8.710937 8.710938 v 0.367187 c 0 1.613281 -1.308594 2.921875 -2.921875 2.921875 h -5.027344 v 14 c 0 1.105469 0.894531 2 2 2 l 3.09375 0.003906 c 1.578125 0 2.796875 1.328125 3.339844 2.796875 c 1.183594 3.21875 4.410156 5.199219 8.226562 5.199219 h 58.628906 c 4.824219 0 8.710938 -3.886719 8.710938 -8.710938 v -18.578124 c 0 -4.824219 -3.886719 -8.710938 -8.710938 -8.710938 z m 0 0" fill="#aeaab9" fill-rule="evenodd"/>
    <path d="m 46.027344 50 c -2.230469 0 -4.027344 1.796875 -4.027344 4.023438 v 7.953124 c 0 2.226563 1.796875 4.023438 4.027344 4.023438 h 21.945312 c 2.222656 0 4.011719 -1.78125 4.027344 -4 h 27.972656 c 2.230469 0 4.027344 -1.785156 4.027344 -4 s -1.796875 -4 -4.027344 -4 h -27.972656 c -0.015625 -2.21875 -1.804688 -4 -4.027344 -4 z m 0 0" fill="#241f31" fill-opacity="0.086275" fill-rule="evenodd"/>
    <path d="m 64.601562 68 h -11.453124 c -7.371094 0 -14.679688 -1.34375 -21.566407 -3.96875 l -0.851562 -0.324219 c -6.277344 -2.421875 -13.03125 -3.347656 -19.730469 -2.707031 l 5.046875 -9.953125 l 19.652344 9.804687 c 0.492187 0.246094 1.078125 0.21875 1.546875 -0.070312 s 0.753906 -0.800781 0.753906 -1.355469 v -0.425781 c 0 -1.28125 -0.5 -2.515625 -1.390625 -3.4375 l -4.582031 -4.722656 l 1.117187 -3.113282 l 6.710938 5.3125 c 0.398437 0.3125 0.941406 0.375 1.398437 0.152344 c 0.457032 -0.222656 0.746094 -0.683594 0.746094 -1.191406 c 0 -1.273438 -0.539062 -2.488281 -1.480469 -3.34375 l -10.566406 -9.605469 c -2.523437 -2.296875 -5.382813 -4.1875 -8.484375 -5.613281 l -6.03125 -2.777344 c -0.265625 -0.121094 -0.4375 -0.382812 -0.441406 -0.675781 s 0.15625 -0.5625 0.417968 -0.691406 l 11.257813 -5.628907 c 0.769531 -0.386718 1.679687 -0.375 2.441406 0.023438 c 0.761719 0.402344 1.285157 1.144531 1.402344 1.996094 l 0.601563 4.300781 c 0.488281 3.472656 2.152343 6.675781 4.714843 9.074219 l 6.960938 6.5 c 4.429687 4.140625 10.261719 6.441406 16.324219 6.441406 h 0.300781 c 2.898437 0 5.636719 -1.3125 7.449219 -3.574219 l 19.441406 -24.230469 l 3.464844 2 l -11.945313 23.246094 c -1.136719 2.214844 -1.0625 4.859375 0.203125 7.003906 l 1.046875 1.773438 c 0.773437 1.316406 2.390625 1.878906 3.816406 1.328125 l 1.71875 -0.667969 c 4.910157 -1.894531 9.433594 -4.675781 13.34375 -8.199218 l 2.894531 -2.601563 l 2.175782 11.648437 l -1.460938 -0.054687 c -5.246094 -0.183594 -10.476562 0.722656 -15.355468 2.664063 l -7.335938 2.925781 c -4.542969 1.808593 -9.386719 2.738281 -14.273438 2.738281 z m 0 0" fill="url(#n)"/>
    <path d="m 31.582031 64.03125 l -0.851562 -0.324219 c -6.277344 -2.421875 -13.03125 -3.347656 -19.730469 -2.707031 l 5.046875 -9.953125 l 19.652344 9.804687 z m 0 0" fill="url(#o)"/>
    <path d="m 83 60.5 c 0 8.007812 -11.417969 14.5 -25.5 14.5 s -25.5 -6.492188 -25.5 -14.5 s 11.417969 -14.5 25.5 -14.5 s 25.5 6.492188 25.5 14.5 z m 0 0" fill="url(#p)" fill-rule="evenodd"/>
    <path d="m 86.257812 24.195312 l -13.195312 16.511719 l 7.167969 2.3125 l 9.292969 -16.378906 z m 0 0" fill="#ffffff" fill-opacity="0.482353"/>
    <g clip-path="url(#q)">
        <g clip-path="url(#r)">
            <path d="m 54 30.023438 h 66 v 16 h -66 z m 0 0" fill="url(#s)" fill-rule="evenodd"/>
        </g>
    </g>
    <g clip-path="url(#t)">
        <g clip-path="url(#u)">
            <path d="m 62 34.023438 h 50 c 4.417969 0 8 3.582031 8 8 c 0 4.417968 -3.582031 8 -8 8 h -50 c -4.417969 0 -8 -3.582032 -8 -8 c 0 -4.417969 3.582031 -8 8 -8 z m 0 0" fill="url(#v)" fill-rule="evenodd"/>
        </g>
    </g>
    <g fill-rule="evenodd">
        <path d="m 42.34375 30.023438 h 13.804688 c 1.296874 0 2.347656 1.050781 2.347656 2.347656 v 11.308594 c 0 1.292968 -1.050782 2.34375 -2.347656 2.34375 h -13.804688 c -1.292969 0 -2.34375 -1.050782 -2.34375 -2.34375 v -11.308594 c 0 -1.296875 1.050781 -2.347656 2.34375 -2.347656 z m 0 0" fill="url(#w)"/>
        <path d="m 66.179688 4 c 3.28125 0.03125 5.917968 2.71875 5.886718 6 v 39.632812 h -27.886718 v -23.632812 c 0 -12.148438 9.851562 -22 22 -22 z m 0 0" fill="url(#x)"/>
        <path d="m 66.179688 17.988281 c 3.285156 0.035157 5.917968 2.726563 5.886718 6.011719 v 34 c 0 3.335938 -2.707031 6.042969 -6.042968 6.042969 h -15.753907 c -3.363281 0 -6.089843 -2.726563 -6.089843 -6.089844 v -17.964844 c 0 -12.148437 9.851562 -22 22 -22 z m 0 0" fill="#5e5c64"/>
        <path d="m 32.066406 20.113281 c 0 6.628907 -5.371094 12 -12 12 c -6.625 0 -12 -5.371093 -12 -12 c 0 -6.625 5.375 -12 12 -12 c 6.628906 0 12 5.375 12 12 z m 0 0" fill="#f6d32d"/>
        <path d="m 31.859375 22.335938 c -0.289063 1.617187 -4.933594 1.417968 -6.003906 2.664062 c -1.089844 1.269531 -0.242188 5.871094 -1.816407 6.4375 c -1.542968 0.558594 -3.695312 -3.5625 -5.308593 -3.867188 c -1.640625 -0.308593 -5.207031 2.726563 -6.484375 1.644532 c -1.253906 -1.058594 1.238281 -4.980469 0.695312 -6.527344 c -0.554687 -1.578125 -4.960937 -3.148438 -4.667968 -4.792969 c 0.289062 -1.617187 4.933593 -1.417969 6.003906 -2.664062 c 1.089844 -1.269531 0.246094 -5.871094 1.816406 -6.4375 c 1.546875 -0.558594 3.695312 3.5625 5.308594 3.867187 c 1.644531 0.308594 5.207031 -2.726562 6.484375 -1.648437 c 1.257812 1.058593 -1.238281 4.984375 -0.695313 6.53125 c 0.554688 1.578125 4.964844 3.148437 4.667969 4.792969 z m 0 0" fill="#ffffff"/>
        <path d="m 20.105469 54.101562 c 0 4.449219 -3.605469 8.054688 -8.050781 8.054688 c -4.449219 0 -8.054688 -3.605469 -8.054688 -8.054688 c 0 -4.449218 3.605469 -8.054687 8.054688 -8.054687 c 4.445312 0 8.050781 3.605469 8.050781 8.054687 z m 0 0" fill="#f5c211" fill-opacity="0.776471"/>
        <path d="m 19.964844 55.601562 c -0.316406 1.679688 -3.636719 0.550782 -4.878906 1.722657 c -1.246094 1.167969 -0.320313 4.550781 -2.015626 4.765625 c -1.695312 0.214844 -1.648437 -3.289063 -3.144531 -4.109375 c -1.496093 -0.820313 -4.425781 1.101562 -5.15625 -0.441407 c -0.726562 -1.546874 2.621094 -2.585937 2.9375 -4.261718 c 0.320313 -1.679688 -2.414062 -3.871094 -1.171875 -5.042969 c 1.242188 -1.167969 3.265625 1.695313 4.960938 1.480469 c 1.691406 -0.21875 2.933594 -3.496094 4.429687 -2.675782 c 1.5 0.824219 -0.601562 3.628907 0.128907 5.175782 c 0.726562 1.542968 4.230468 1.710937 3.910156 3.386718 z m 0 0" fill="#ffffff"/>
        <path d="m 107.203125 50.835938 c 1.660156 2.875 0.675781 6.550781 -2.199219 8.210937 c -2.875 1.65625 -6.550781 0.671875 -8.207031 -2.203125 c -1.660156 -2.871094 -0.675781 -6.546875 2.199219 -8.207031 c 2.875 -1.660157 6.550781 -0.675781 8.207031 2.199219 z m 0 0" fill="#f5c211" fill-opacity="0.784314"/>
        <path d="m 107.671875 51.859375 c 0.414063 0.96875 -2.339844 2.191406 -2.796875 3.140625 c -0.5 1.035156 0.164062 4.0625 -0.894531 4.515625 c -0.964844 0.410156 -2.191407 -2.34375 -3.140625 -2.800781 c -1.035156 -0.5 -4.0625 0.167968 -4.511719 -0.890625 c -0.414063 -0.96875 2.339844 -2.195313 2.796875 -3.144531 c 0.5 -1.035157 -0.164062 -4.0625 0.894531 -4.511719 c 0.964844 -0.414063 2.191407 2.339843 3.140625 2.796875 c 1.035156 0.5 4.0625 -0.164063 4.511719 0.894531 z m 0 0" fill="#ffffff"/>
        <path d="m 96.035156 19.203125 c 1.660156 2.875 0.675782 6.550781 -2.199218 8.207031 c -2.875 1.660156 -6.550782 0.675782 -8.210938 -2.199218 c -1.65625 -2.875 -0.671875 -6.546876 2.203125 -8.207032 c 2.871094 -1.660156 6.546875 -0.675781 8.207031 2.199219 z m 0 0" fill="#f8e45c"/>
        <path d="m 96.503906 20.226562 c 0.371094 1.015626 -2.28125 2.363282 -2.75 3.339844 c -0.480468 0.992188 0.097656 3.933594 -0.941406 4.3125 c -1.015625 0.375 -2.363281 -2.28125 -3.339844 -2.75 c -0.992187 -0.480468 -3.9375 0.097656 -4.316406 -0.941406 c -0.371094 -1.015625 2.28125 -2.363281 2.753906 -3.339844 c 0.476563 -0.992187 -0.097656 -3.933594 0.9375 -4.3125 c 1.019532 -0.371094 2.367188 2.28125 3.339844 2.75 c 0.996094 0.480469 3.9375 -0.097656 4.316406 0.941406 z m 0 0" fill="#ffffff"/>
        <path d="m 34.292969 47.167969 c 0 3.320312 -2.691407 6.011719 -6.007813 6.011719 c -3.320312 0 -6.011718 -2.691407 -6.011718 -6.011719 c 0 -3.316407 2.691406 -6.007813 6.011718 -6.007813 c 3.316406 0 6.007813 2.691406 6.007813 6.007813 z m 0 0" fill="#f5c211" fill-opacity="0.760784"/>
        <path d="m 34.1875 48.289062 c -0.082031 1.066407 -3.304688 0.285157 -4.1875 0.886719 c -0.996094 0.679688 -1.636719 3.992188 -2.835938 3.898438 c -1.066406 -0.085938 -0.285156 -3.304688 -0.886718 -4.1875 c -0.679688 -0.996094 -3.992188 -1.636719 -3.898438 -2.839844 c 0.085938 -1.066406 3.304688 -0.285156 4.1875 -0.886719 c 0.996094 -0.675781 1.636719 -3.988281 2.835938 -3.894531 c 1.070312 0.082031 0.285156 3.300781 0.890625 4.1875 c 0.675781 0.996094 3.988281 1.636719 3.894531 2.835937 z m 0 0" fill="#ffffff"/>
    </g>
    <path d="m 36.496094 44.992188 c -7.496094 -6.992188 -11.925782 -10.128907 -15.027344 -11.554688 l -6.03125 -2.777344 c -0.578125 -0.265625 -0.59375 -1.082031 -0.023438 -1.367187 l 11.257813 -5.628907 c 1.636719 -0.816406 3.589844 0.210938 3.84375 2.019532 l 0.601563 4.300781 c 0.488281 3.472656 1.054687 6.226563 11.007812 15.015625 z m 0 0" fill="url(#n)"/>
</svg>
