<?xml version="1.0" encoding="UTF-8"?>
<svg width="128px" height="128px" version="1.1" viewBox="0 0 128 128" xmlns="http://www.w3.org/2000/svg" xmlns:cc="http://creativecommons.org/ns#" xmlns:dc="http://purl.org/dc/elements/1.1/" xmlns:rdf="http://www.w3.org/1999/02/22-rdf-syntax-ns#" xmlns:xlink="http://www.w3.org/1999/xlink">
 <metadata>
  <rdf:RDF>
   <cc:Work rdf:about="">
    <dc:format>image/svg+xml</dc:format>
    <dc:type rdf:resource="http://purl.org/dc/dcmitype/StillImage"/>
    <dc:title/>
   </cc:Work>
  </rdf:RDF>
 </metadata>
 <defs>
  <linearGradient id="linearGradient1345" x1="32" x2="46" y1="80" y2="80" gradientTransform="matrix(.92308 0 0 .92308 -2.4615 -10.769)" gradientUnits="userSpaceOnUse">
   <stop stop-color="#1a5fb4" offset="0"/>
   <stop stop-color="#134b91" offset="1"/>
  </linearGradient>
 </defs>
 <g>
  <path d="m28 15.077c-6.648 0-12 5.352-12 12v80h6v-14h6v14h6v-13.077h6v-66.923c0-6.648-5.352-12-12-12z" fill="url(#linearGradient1345)" stroke-width="8.9068" style="paint-order:stroke fill markers"/>
  <path d="m75.077 15.077v0.0469c0.30582-0.02318 0.61113-0.0469 0.92308-0.0469zm0.92308 0c6.648 0 12 5.352 12 12v12h24v-12c0-6.648-5.352-12-12-12-0.31194 0-0.61726 0.0237-0.92308 0.0469v-0.0469z" fill="#3584e4" stroke-width="11.048" style="paint-order:stroke fill markers"/>
  <rect x="88" y="39.077" width="24" height="24" fill="#99c1f1" stroke-width="14.343" style="paint-order:stroke fill markers"/>
  <path d="m51.077 15.077v0.0469c0.30582-0.02318 0.61113-0.0469 0.92308-0.0469zm0.92308 0c6.648 0 12 5.352 12 12v12h24v-12c0-6.648-5.352-12-12-12-0.31194 0-0.61726 0.0237-0.92308 0.0469v-0.0469z" fill="#99c1f1" stroke-width="11.048" style="paint-order:stroke fill markers"/>
  <path d="m27.077 15.077v0.0469c0.30582-0.02318 0.61113-0.0469 0.92308-0.0469zm0.92308 0c6.648 0 12 5.352 12 12v12h24v-12c0-6.648-5.352-12-12-12-0.31194 0-0.61726 0.0237-0.92308 0.0469v-0.0469z" fill="#3584e4" stroke-width="11.048" style="paint-order:stroke fill markers"/>
  <g stroke-width="14.343">
   <rect x="64" y="39.077" width="24" height="24" fill="#3584e4" style="paint-order:stroke fill markers"/>
   <rect x="40" y="39.077" width="24" height="24" fill="#99c1f1" style="paint-order:stroke fill markers"/>
   <rect x="88" y="63.077" width="24" height="24" fill="#3584e4" style="paint-order:stroke fill markers"/>
   <rect x="40" y="63.077" width="24" height="24" fill="#3584e4" style="paint-order:stroke fill markers"/>
   <rect x="64" y="63.077" width="24" height="24" fill="#99c1f1" style="paint-order:stroke fill markers"/>
  </g>
  <g stroke-width="10.525">
   <rect x="88" y="87.077" width="24" height="12.923" fill="#99c1f1" style="paint-order:stroke fill markers"/>
   <rect x="64" y="87.077" width="24" height="12.923" fill="#3584e4" style="paint-order:stroke fill markers"/>
   <rect x="40" y="87.077" width="24" height="12.923" fill="#99c1f1" style="paint-order:stroke fill markers"/>
  </g>
  <g stroke-width="21.049">
   <rect x="88" y="100" width="24" height="1.8462" fill="#3584e4" opacity=".99971" style="paint-order:stroke fill markers"/>
   <rect x="64" y="100" width="24" height="1.8462" fill="#1a5fb4" opacity=".99971" style="paint-order:stroke fill markers"/>
   <rect x="40" y="100" width="24" height="1.8462" fill="#3584e4" opacity=".99971" style="paint-order:stroke fill markers"/>
  </g>
  <g stroke-width="4.4475">
   <rect x="40" y="100" width="6" height="13.077" fill="#99c1f1" style="paint-order:stroke fill markers"/>
   <rect x="52" y="100" width="6" height="13.077" fill="#99c1f1" style="paint-order:stroke fill markers"/>
   <rect x="64" y="100" width="6" height="13.077" fill="#3584e4" style="paint-order:stroke fill markers"/>
   <rect x="76" y="100" width="6" height="13.077" fill="#3584e4" style="paint-order:stroke fill markers"/>
   <rect x="88" y="100" width="6" height="13.077" fill="#99c1f1" style="paint-order:stroke fill markers"/>
   <rect x="100" y="100" width="6" height="13.077" fill="#99c1f1" style="paint-order:stroke fill markers"/>
  </g>
  <g stroke-width="10">
   <rect x="40" y="113.08" width="6" height="2" fill="#3584e4" opacity=".99971" style="paint-order:stroke fill markers"/>
   <rect x="64" y="113.08" width="6" height="2" fill="#1a5fb4" opacity=".99971" style="paint-order:stroke fill markers"/>
   <rect x="52" y="113.08" width="6" height="2" fill="#3584e4" opacity=".99971" style="paint-order:stroke fill markers"/>
   <rect x="76" y="113.08" width="6" height="2" fill="#1a5fb4" opacity=".99971" style="paint-order:stroke fill markers"/>
   <rect x="88" y="113.08" width="6" height="2" fill="#3584e4" opacity=".99971" style="paint-order:stroke fill markers"/>
   <rect x="100" y="113.08" width="6" height="2" fill="#3584e4" opacity=".99971" style="paint-order:stroke fill markers"/>
  </g>
 </g>
</svg>
