<?xml version="1.0" encoding="UTF-8" standalone="no"?>
<svg
   xmlns:dc="http://purl.org/dc/elements/1.1/"
   xmlns:cc="http://creativecommons.org/ns#"
   xmlns:rdf="http://www.w3.org/1999/02/22-rdf-syntax-ns#"
   xmlns:svg="http://www.w3.org/2000/svg"
   xmlns="http://www.w3.org/2000/svg"
   xmlns:xlink="http://www.w3.org/1999/xlink"
   xmlns:sodipodi="http://sodipodi.sourceforge.net/DTD/sodipodi-0.dtd"
   xmlns:inkscape="http://www.inkscape.org/namespaces/inkscape"
   inkscape:version="1.0 (4035a4fb49, 2020-05-01)"
   sodipodi:docname="com.rafaelmardojai.Blanket.svg"
   id="svg134"
   viewBox="0 0 128 128"
   version="1.1"
   height="128px"
   width="128px">
  <sodipodi:namedview
     inkscape:current-layer="svg134"
     inkscape:window-maximized="1"
     inkscape:window-y="27"
     inkscape:window-x="0"
     inkscape:cy="59.46451"
     inkscape:cx="60.571783"
     inkscape:zoom="4.7287766"
     showgrid="false"
     id="namedview136"
     inkscape:window-height="1016"
     inkscape:window-width="1920"
     inkscape:pageshadow="2"
     inkscape:pageopacity="0"
     guidetolerance="10"
     gridtolerance="10"
     objecttolerance="10"
     borderopacity="1"
     bordercolor="#666666"
     pagecolor="#ffffff"
     inkscape:document-rotation="0" />
  <metadata
     id="metadata2">
    <rdf:RDF>
      <cc:Work
         rdf:about="">
        <dc:format>image/svg+xml</dc:format>
        <dc:type
           rdf:resource="http://purl.org/dc/dcmitype/StillImage" />
        <dc:title />
      </cc:Work>
    </rdf:RDF>
  </metadata>
  <defs
     id="defs14">
    <linearGradient
       gradientUnits="userSpaceOnUse"
       gradientTransform="matrix(.92308 0 0 .92308 -2.4615 -10.769)"
       y2="80"
       y1="80"
       x2="46"
       x1="32"
       id="linearGradient1345">
      <stop
         id="stop4"
         offset="0"
         stop-color="#1a5fb4" />
      <stop
         id="stop6"
         offset="1"
         stop-color="#134b91" />
    </linearGradient>
    <linearGradient
       gradientUnits="userSpaceOnUse"
       gradientTransform="matrix(.92308 0 0 .92308 -2.4615 162.15)"
       y2="80"
       y1="80"
       x2="46"
       x1="32"
       id="linearGradient1345-3">
      <stop
         id="stop9"
         offset="0"
         stop-color="#1a5fb4" />
      <stop
         id="stop11"
         offset="1"
         stop-color="#174782" />
    </linearGradient>
    <linearGradient
       gradientTransform="matrix(0.92307692,0,0,0.92307692,-2.4615404,-11.846147)"
       gradientUnits="userSpaceOnUse"
       y2="80"
       x2="46"
       y1="80"
       x1="32"
       id="linearGradient1345-36"
       xlink:href="#linearGradient1343"
       inkscape:collect="always" />
    <linearGradient
       id="linearGradient1343"
       inkscape:collect="always">
      <stop
         id="stop1339"
         offset="0"
         style="stop-color:#1a5fb4;stop-opacity:1;" />
      <stop
         id="stop1341"
         offset="1"
         style="stop-color:#174782;stop-opacity:1" />
    </linearGradient>
  </defs>
  <g
     id="g920">
    <path
       id="rect1288"
       style="fill:url(#linearGradient1345-36);fill-opacity:1;stroke-width:8.90675;paint-order:stroke fill markers"
       d="m 27.999997,14.000003 c -6.648,0 -12,5.352 -12,12 v 36 30 V 106 h 6 V 92.000003 h 6 V 106 h 6.000001 V 92.923073 h 6 v -30.92307 -36 c 0,-6.648 -5.352,-12 -12.000001,-12 z"
       sodipodi:nodetypes="sscccccccccccss" />
    <path
       sodipodi:nodetypes="cccccccccsccc"
       d="m 75.07692,14.000003 v 0.0469 c 0.305816,-0.02318 0.611132,-0.0469 0.923078,-0.0469 z m 0.923078,0 c 6.648,0 12,5.352 12,12 0,28 0,-16 0,12 H 112 c 0,-28 0,16 0,-12 0,-6.648 -5.352,-12 -12,-12 -0.311947,0 -0.617267,0.0237 -0.923077,0.0469 v -0.0469 z"
       style="fill:#3584e4;fill-opacity:1;stroke-width:11.0475;paint-order:stroke fill markers"
       id="path1348" />
    <rect
       y="38.000004"
       x="88"
       height="24"
       width="24"
       id="rect1350"
       style="fill:#99c1f1;fill-opacity:1;stroke-width:14.3428;paint-order:stroke fill markers" />
    <path
       sodipodi:nodetypes="cccccccccsccc"
       d="m 51.07692,14.000003 v 0.0469 c 0.305816,-0.02318 0.611134,-0.0469 0.923077,-0.0469 z m 0.923077,0 c 6.648001,0 12.000001,5.352 12.000001,12 0,28 0,-16 0,12 h 24 c 0,-28 0,16 0,-12 0,-6.648 -5.352,-12 -12,-12 -0.311945,0 -0.617261,0.0237 -0.923078,0.0469 v -0.0469 z"
       style="fill:#b4d6ff;fill-opacity:1;stroke-width:11.0475;paint-order:stroke fill markers"
       id="path1318" />
    <path
       id="path1320"
       style="fill:#3584e4;fill-opacity:1;stroke-width:11.0475;paint-order:stroke fill markers"
       d="m 27.07692,14.000003 v 0.0469 c 0.305816,-0.02318 0.611133,-0.0469 0.923077,-0.0469 z m 0.923077,0 c 6.648001,0 12.000001,5.352 12.000001,12 0,28 0,-16 0,12 h 24 c 0,-28 0,16 0,-12 0,-6.648 -5.352,-12 -12,-12 -0.311944,0 -0.617261,0.0237 -0.923077,0.0469 v -0.0469 z"
       sodipodi:nodetypes="cccccccccsccc" />
    <rect
       y="62.000004"
       x="88"
       height="24"
       width="24"
       id="rect1352"
       style="fill:#3584e4;fill-opacity:1;stroke-width:14.3428;paint-order:stroke fill markers" />
    <rect
       y="38.000004"
       x="64"
       height="24"
       width="24"
       id="rect1322"
       style="fill:#1c71d8;fill-opacity:1;stroke-width:14.3428;paint-order:stroke fill markers" />
    <rect
       style="fill:#99c1f1;fill-opacity:1;stroke-width:14.3428;paint-order:stroke fill markers"
       id="rect1325"
       width="24"
       height="24"
       x="39.999996"
       y="38.000004" />
    <rect
       y="62.000004"
       x="39.999996"
       height="24"
       width="24"
       id="rect1329"
       style="fill:#3584e4;fill-opacity:1;stroke-width:14.3428;paint-order:stroke fill markers" />
    <rect
       y="62.000004"
       x="64"
       height="24"
       width="24"
       id="rect1331"
       style="fill:#b4d6ff;fill-opacity:1;stroke-width:14.3428;paint-order:stroke fill markers" />
    <rect
       style="opacity:0.999707;fill:#3584e4;fill-opacity:1;stroke-width:21.0494;paint-order:stroke fill markers"
       id="rect1354"
       width="24"
       height="1.8461539"
       x="88"
       y="98.923073" />
    <rect
       style="opacity:0.999707;fill:#134c92;fill-opacity:1;stroke-width:21.0494;paint-order:stroke fill markers"
       id="rect1388"
       width="24"
       height="1.8461539"
       x="64"
       y="98.923073" />
    <path
       id="rect1335"
       style="fill:#1c71d8;fill-opacity:1;stroke-width:10.5246;paint-order:stroke fill markers"
       d="M 63.999998,86.000003 V 98.923833 112 h 6 V 98.923833 h 6 V 112 h 6 V 98.923833 h 6 v -12.92383 z" />
    <path
       d="M 87.999998,86.000003 V 98.923833 112 h 6 V 98.923833 H 100 V 112 h 6 V 98.923833 h 6 v -12.92383 z"
       style="fill:#99c1f1;fill-opacity:1;stroke-width:10.5246;paint-order:stroke fill markers"
       id="path1356" />
    <rect
       style="opacity:0.999707;fill:#3584e4;fill-opacity:1;stroke-width:21.0494;paint-order:stroke fill markers"
       id="rect1384"
       width="24"
       height="1.8461539"
       x="39.999996"
       y="98.923073" />
    <rect
       style="opacity:0.999707;fill:#3584e4;fill-opacity:1;stroke-width:9.99995;paint-order:stroke fill markers"
       id="rect1372"
       width="6"
       height="1.999993"
       x="39.999996"
       y="112.00001" />
    <path
       id="rect1337"
       style="fill:#99c1f1;fill-opacity:1;stroke-width:10.5246;paint-order:stroke fill markers"
       d="M 39.999997,86.000003 V 98.923833 112 h 6 V 98.923833 h 6 V 112 h 6 V 98.923833 h 6.000001 v -12.92383 z" />
    <rect
       y="112.00001"
       x="64"
       height="1.999993"
       width="6"
       id="rect1374"
       style="opacity:0.999707;fill:#134c92;fill-opacity:1;stroke-width:9.99995;paint-order:stroke fill markers" />
    <rect
       y="112.00001"
       x="51.999996"
       height="1.999993"
       width="6"
       id="rect1376"
       style="opacity:0.999707;fill:#3584e4;fill-opacity:1;stroke-width:9.99995;paint-order:stroke fill markers" />
    <rect
       style="opacity:0.999707;fill:#134c92;fill-opacity:1;stroke-width:9.99995;paint-order:stroke fill markers"
       id="rect1378"
       width="6"
       height="1.999993"
       x="76"
       y="112.00001" />
    <rect
       y="112.00001"
       x="88"
       height="1.999993"
       width="6"
       id="rect1358"
       style="opacity:0.999707;fill:#3584e4;fill-opacity:1;stroke-width:9.99995;paint-order:stroke fill markers" />
    <rect
       style="opacity:0.999707;fill:#3584e4;fill-opacity:1;stroke-width:9.99995;paint-order:stroke fill markers"
       id="rect1360"
       width="6"
       height="1.999993"
       x="100"
       y="112.00001" />
  </g>
</svg>
