<?xml version="1.0" encoding="UTF-8" standalone="no"?>
<svg
   xmlns:dc="http://purl.org/dc/elements/1.1/"
   xmlns:cc="http://creativecommons.org/ns#"
   xmlns:rdf="http://www.w3.org/1999/02/22-rdf-syntax-ns#"
   xmlns:svg="http://www.w3.org/2000/svg"
   xmlns="http://www.w3.org/2000/svg"
   xmlns:xlink="http://www.w3.org/1999/xlink"
   xmlns:sodipodi="http://sodipodi.sourceforge.net/DTD/sodipodi-0.dtd"
   xmlns:inkscape="http://www.inkscape.org/namespaces/inkscape"
   inkscape:version="1.0 (4035a4fb49, 2020-05-01)"
   sodipodi:docname="com.rafaelmardojai.Blanket.svg"
   id="svg134"
   viewBox="0 0 128 128"
   version="1.1"
   height="128px"
   width="128px">
  <sodipodi:namedview
     inkscape:current-layer="svg134"
     inkscape:window-maximized="1"
     inkscape:window-y="0"
     inkscape:window-x="1920"
     inkscape:cy="61.672382"
     inkscape:cx="88.285978"
     inkscape:zoom="4.7287766"
     showgrid="false"
     id="namedview136"
     inkscape:window-height="1043"
     inkscape:window-width="1920"
     inkscape:pageshadow="2"
     inkscape:pageopacity="0"
     guidetolerance="10"
     gridtolerance="10"
     objecttolerance="10"
     borderopacity="1"
     bordercolor="#666666"
     pagecolor="#ffffff" />
  <metadata
     id="metadata2">
    <rdf:RDF>
      <cc:Work
         rdf:about="">
        <dc:format>image/svg+xml</dc:format>
        <dc:type
           rdf:resource="http://purl.org/dc/dcmitype/StillImage" />
        <dc:title />
      </cc:Work>
    </rdf:RDF>
  </metadata>
  <defs
     id="defs14">
    <linearGradient
       gradientUnits="userSpaceOnUse"
       gradientTransform="matrix(.92308 0 0 .92308 -2.4615 -10.769)"
       y2="80"
       y1="80"
       x2="46"
       x1="32"
       id="linearGradient1345">
      <stop
         id="stop4"
         offset="0"
         stop-color="#1a5fb4" />
      <stop
         id="stop6"
         offset="1"
         stop-color="#134b91" />
    </linearGradient>
    <linearGradient
       gradientUnits="userSpaceOnUse"
       gradientTransform="matrix(.92308 0 0 .92308 -2.4615 162.15)"
       y2="80"
       y1="80"
       x2="46"
       x1="32"
       id="linearGradient1345-3">
      <stop
         id="stop9"
         offset="0"
         stop-color="#1a5fb4" />
      <stop
         id="stop11"
         offset="1"
         stop-color="#174782" />
    </linearGradient>
    <linearGradient
       inkscape:collect="always"
       xlink:href="#linearGradient1343"
       id="linearGradient1345-36"
       x1="32"
       y1="80"
       x2="46"
       y2="80"
       gradientUnits="userSpaceOnUse"
       gradientTransform="matrix(0.92307692,0,0,0.92307692,-2.4615382,-11.84615)" />
    <linearGradient
       inkscape:collect="always"
       id="linearGradient1343">
      <stop
         style="stop-color:#1a5fb4;stop-opacity:1;"
         offset="0"
         id="stop1339" />
      <stop
         style="stop-color:#174782;stop-opacity:1"
         offset="1"
         id="stop1341" />
    </linearGradient>
  </defs>
  <g
     id="g1063">
    <path
       sodipodi:nodetypes="sscccccccccccss"
       d="m 28,14 c -6.648,0 -12,5.352 -12,12 v 36 30 14 h 6 V 92 h 6 v 14 h 6 V 92.92307 h 6 V 62 26 C 40,19.352 34.648,14 28,14 Z"
       style="fill:url(#linearGradient1345-36);fill-opacity:1;stroke-width:8.90675;paint-order:stroke fill markers"
       id="rect1288" />
    <path
       sodipodi:nodetypes="cccccccccsccc"
       d="m 75.076923,14 v 0.0469 C 75.382739,14.02372 75.688055,14 76,14 Z M 76,14 c 6.648,0 12,5.352 12,12 0,28 0,-16 0,12 h 24 c 0,-28 0,16 0,-12 0,-6.648 -5.352,-12 -12,-12 -0.311945,0 -0.617262,0.0237 -0.923077,0.0469 V 14 Z"
       style="fill:#8cc0ff;fill-opacity:1;stroke-width:11.0475;paint-order:stroke fill markers"
       id="path1314" />
    <rect
       y="38"
       x="88"
       height="24"
       width="24"
       id="rect1316"
       style="fill:#1c71d8;fill-opacity:1;stroke-width:14.3428;paint-order:stroke fill markers" />
    <path
       id="path1318"
       style="fill:#3584e4;fill-opacity:1;stroke-width:11.0475;paint-order:stroke fill markers"
       d="m 51.076923,14 v 0.0469 C 51.382739,14.02372 51.688056,14 52,14 Z M 52,14 c 6.648,0 12,5.352 12,12 0,28 0,-16 0,12 h 24 c 0,-28 0,16 0,-12 0,-6.648 -5.352,-12 -12,-12 -0.311945,0 -0.617261,0.0237 -0.923077,0.0469 V 14 Z"
       sodipodi:nodetypes="cccccccccsccc" />
    <path
       sodipodi:nodetypes="cccccccccsccc"
       d="m 27.076923,14 v 0.0469 C 27.382739,14.02372 27.688056,14 28,14 Z M 28,14 c 6.648,0 12,5.352 12,12 0,28 0,-16 0,12 h 24 c 0,-28 0,16 0,-12 0,-6.648 -5.352,-12 -12,-12 -0.311944,0 -0.617261,0.0237 -0.923077,0.0469 V 14 Z"
       style="fill:#c4dbf8;fill-opacity:1;stroke-width:11.0475;paint-order:stroke fill markers"
       id="path1320" />
    <rect
       style="fill:#a9cefc;fill-opacity:1;stroke-width:14.3428;paint-order:stroke fill markers"
       id="rect1322"
       width="24"
       height="24"
       x="64"
       y="38" />
    <rect
       y="38"
       x="40"
       height="24"
       width="24"
       id="rect1325"
       style="fill:#62a0ea;fill-opacity:1;stroke-width:14.3428;paint-order:stroke fill markers" />
    <rect
       y="62"
       x="88"
       height="24"
       width="24"
       id="rect1327"
       style="fill:#8cc0ff;fill-opacity:1;stroke-width:14.3428;paint-order:stroke fill markers" />
    <rect
       style="fill:#c4dbf8;fill-opacity:1;stroke-width:14.3428;paint-order:stroke fill markers"
       id="rect1329"
       width="24"
       height="24"
       x="40"
       y="62" />
    <rect
       style="fill:#3584e4;fill-opacity:1;stroke-width:14.3428;paint-order:stroke fill markers"
       id="rect1331"
       width="24"
       height="24"
       x="64"
       y="62" />
    <rect
       y="98.923065"
       x="64"
       height="1.8461539"
       width="24"
       id="rect1388"
       style="opacity:0.999707;fill:#3584e4;fill-opacity:1;stroke-width:21.0494;paint-order:stroke fill markers" />
    <path
       d="M 64,86 V 98.92383 112 h 6 V 98.92383 h 6 V 112 h 6 V 98.92383 h 6 V 86 Z"
       style="fill:#a9cefc;fill-opacity:1;stroke-width:10.5246;paint-order:stroke fill markers"
       id="rect1335" />
    <rect
       style="opacity:0.999707;fill:#134c92;fill-opacity:1;stroke-width:21.0494;paint-order:stroke fill markers"
       id="rect1386"
       width="24"
       height="1.8461539"
       x="88"
       y="98.923065" />
    <path
       d="M 88,86 V 98.92383 112 h 6 V 98.92383 h 6 V 112 h 6 V 98.92383 h 6 V 86 Z"
       style="fill:#1c71d8;fill-opacity:1;stroke-width:10.5246;paint-order:stroke fill markers"
       id="rect1333" />
    <rect
       y="98.923065"
       x="40"
       height="1.8461539"
       width="24"
       id="rect1384"
       style="opacity:0.999707;fill:#1c71d8;fill-opacity:1;stroke-width:21.0494;paint-order:stroke fill markers" />
    <rect
       y="112"
       x="40"
       height="1.999993"
       width="6"
       id="rect1372"
       style="opacity:0.999707;fill:#1c71d8;fill-opacity:1;stroke-width:9.99995;paint-order:stroke fill markers" />
    <path
       d="M 40,86 V 98.92383 112 h 6 V 98.92383 h 6 V 112 h 6 V 98.92383 h 6 V 86 Z"
       style="fill:#62a0ea;fill-opacity:1;stroke-width:10.5246;paint-order:stroke fill markers"
       id="rect1337" />
    <rect
       style="opacity:0.999707;fill:#3584e4;fill-opacity:1;stroke-width:9.99995;paint-order:stroke fill markers"
       id="rect1374"
       width="6"
       height="1.999993"
       x="64"
       y="112" />
    <rect
       style="opacity:0.999707;fill:#1c71d8;fill-opacity:1;stroke-width:9.99995;paint-order:stroke fill markers"
       id="rect1376"
       width="6"
       height="1.999993"
       x="52"
       y="112" />
    <rect
       y="112"
       x="76"
       height="1.999993"
       width="6"
       id="rect1378"
       style="opacity:0.999707;fill:#3584e4;fill-opacity:1;stroke-width:9.99995;paint-order:stroke fill markers" />
    <rect
       y="112"
       x="88"
       height="1.999993"
       width="6"
       id="rect1380"
       style="opacity:0.999707;fill:#134c92;fill-opacity:1;stroke-width:9.99995;paint-order:stroke fill markers" />
    <rect
       style="opacity:0.999707;fill:#134c92;fill-opacity:1;stroke-width:9.99995;paint-order:stroke fill markers"
       id="rect1382"
       width="6"
       height="1.999993"
       x="100"
       y="112" />
  </g>
</svg>
