<?xml version="1.0" encoding="UTF-8"?>
<svg width="16px" height="16px" version="1.1" viewBox="0 0 16 16" xmlns="http://www.w3.org/2000/svg" xmlns:cc="http://creativecommons.org/ns#" xmlns:dc="http://purl.org/dc/elements/1.1/" xmlns:rdf="http://www.w3.org/1999/02/22-rdf-syntax-ns#">
 <metadata>
  <rdf:RDF>
   <cc:Work rdf:about="">
    <dc:format>image/svg+xml</dc:format>
    <dc:type rdf:resource="http://purl.org/dc/dcmitype/StillImage"/>
    <dc:title/>
   </cc:Work>
  </rdf:RDF>
 </metadata>
 <defs>
  <filter id="filter1436" x="-2.2312e-5" y="-4.5769e-5" width="1" height="1.0001" color-interpolation-filters="sRGB">
   <feGaussianBlur stdDeviation="0.008162181"/>
  </filter>
 </defs>
 <g transform="translate(-160,-172)" enable-background="new" filter="url(#filter1436)">
  <path d="m164 172v8e-3c0.0496-5e-3 0.0993-8e-3 0.15-8e-3zm0.15 0c1.0803 0 1.85 0.892 1.85 2v2h4v-2c0-1.108-0.86969-2-1.95-2-0.0507 0-0.10035 5e-3 -0.15 8e-3v-8e-3z" stroke-width="1.8181" style="paint-order:stroke fill markers"/>
  <rect x="166" y="178" width="4" height="4" opacity=".99971" stroke-width="10" style="paint-order:stroke fill markers"/>
  <path transform="translate(-8,156)" d="m174 28v4h2v-2h2v-2z" opacity=".99971" stroke-width="10" style="paint-order:stroke fill markers"/>
  <path transform="translate(-8,156)" d="m170 16c-1.108 0-2 0.7805-2 1.75v12.25h2v-2h2v-10.25c0-0.9695-0.892-1.75-2-1.75z" stroke-width="1.3886" style="paint-order:stroke fill markers"/>
  <path d="m170 172v8e-3c0.0496-5e-3 0.0993-8e-3 0.15-8e-3zm0.15 0c1.0803 0 1.85 0.892 1.85 2v2h4v-2c0-1.108-0.86969-2-1.95-2-0.0507 0-0.10035 5e-3 -0.15 8e-3v-8e-3z" stroke-width="1.8181" style="paint-order:stroke fill markers"/>
  <rect x="172" y="178" width="4" height="4" opacity=".99971" stroke-width="10" style="paint-order:stroke fill markers"/>
  <path d="m176 184v4h-2v-2h-2v-2z" opacity=".99971" stroke-width="10" style="paint-order:stroke fill markers"/>
 </g>
</svg>
