<?xml version="1.0" encoding="UTF-8"?>
<svg width="16" height="16" version="1.1" viewBox="0 0 4.2333 4.2333" xmlns="http://www.w3.org/2000/svg" xmlns:cc="http://creativecommons.org/ns#" xmlns:dc="http://purl.org/dc/elements/1.1/" xmlns:rdf="http://www.w3.org/1999/02/22-rdf-syntax-ns#">
 <g>
  <g transform="matrix(.23151 0 0 .26458 -36.777 -45.773)">
   <g transform="matrix(.99921 0 0 1 .12787 .0031877)">
    <g transform="translate(-3.424 -5)" fill="#666">
     <g transform="translate(0 .00319)" shape-rendering="auto">
      <path d="m167.45 178c-1.237 0-2.3201 0.35968-3.1027 0.96055s-1.2617 1.3929-1.567 2.214c-0.61057 1.6421-0.49107 3.8227-0.49107 4.8223l-2e-3 2.9402c0 2.6845 2.2281 5.0566 5.1451 5.0566h11c1.255 0 2.1474-0.98236 2.1474-2.0056 0-0.81156-0.64719-1.4567-1.5045-1.7454 0.90016-0.65157 1.525-1.6398 1.5045-2.7528l-4.5e-4 -3.9969c-1.4e-4 -1.2814-0.11282-1.8679-0.51071-2.8812-0.59626-1.4501-2.2733-2.6211-4.6317-2.6181l-4.971 6e-3h-0.0335zm0 1.9992 2.9867-6e-3h5c1.6416 0 2.1048 0.46279 2.5045 1.351 0.20633 0.45862 0.13575 1.2064 0.18303 1.8528-0.75854-0.17123-1.5581-0.2039-2.6875-0.205h-5.0003l-2.9867 6e-3c-1.0593 2e-3 -1.8973 0.30693-2.6674 0.65793 0.0583-0.64888-0.0253-1.3323 0.17188-1.8625 0.21937-0.58998 0.52638-1.0413 0.90178-1.3296 0.37571-0.28824 0.82224-0.46466 1.594-0.46466z" color="#000000" color-rendering="auto" dominant-baseline="auto" enable-background="accumulate" fill="#fff" image-rendering="auto" opacity=".99971" solid-color="#000000" stop-color="#000000" style="font-feature-settings:normal;font-variant-alternates:normal;font-variant-caps:normal;font-variant-east-asian:normal;font-variant-ligatures:normal;font-variant-numeric:normal;font-variant-position:normal;font-variation-settings:normal;inline-size:0;isolation:auto;mix-blend-mode:normal;paint-order:stroke fill markers;shape-margin:0;shape-padding:0;text-decoration-color:#000000;text-decoration-line:none;text-decoration-style:solid;text-indent:0;text-orientation:mixed;text-transform:none;white-space:normal"/>
      <path d="m167.45 179c-4.0176 0-4.197 4.2908-4.0178 6.9972 0.59457-0.9996 1.9118-1.9992 4.0178-1.9992h7.9824c2.2901 0 3 0.1396 4 0.9996 0.17916-2.7064 1e-5 -5.9976-4-5.9976h-5zm-0.0179 5.9976c-2.216 0-4 1.7833-4 3.9984 0 2.2151 1.784 3.9984 4 3.9984h11c0.554 0 1-0.44582 1-0.9996s-0.446-0.9996-1-0.9996h-11c-1.1071-0.0453-2-0.89165-2-1.9992 0-1.1076 0.89199-1.9992 2-1.9992h9.4999c0.277 0 0.49999 0.22291 0.49999 0.4998s-0.22299 0.4998-0.49999 0.4998h-9.4999c-0.554 0-1 0.44583-1 0.99961s0.446 0.9996 1 0.9996h9.5c1.385 0 2.5-1.1146 2.5-2.499 0-1.3844-1.115-2.499-2.5-2.499h-7z" color="#000000" color-rendering="auto" dominant-baseline="auto" enable-background="accumulate" fill="#000" image-rendering="auto" opacity=".99971" solid-color="#000000" stop-color="#000000" style="font-feature-settings:normal;font-variant-alternates:normal;font-variant-caps:normal;font-variant-east-asian:normal;font-variant-ligatures:normal;font-variant-numeric:normal;font-variant-position:normal;font-variation-settings:normal;inline-size:0;isolation:auto;mix-blend-mode:normal;paint-order:stroke fill markers;shape-margin:0;shape-padding:0;text-decoration-color:#000000;text-decoration-line:none;text-decoration-style:solid;text-indent:0;text-orientation:mixed;text-transform:none;white-space:normal"/>
     </g>
    </g>
   </g>
  </g>
 </g>
</svg>
