<?xml version="1.0" encoding="UTF-8"?>
<svg xmlns="http://www.w3.org/2000/svg" xmlns:xlink="http://www.w3.org/1999/xlink" height="128px" viewBox="0 0 128 128" width="128px">
    <linearGradient id="a" gradientUnits="userSpaceOnUse" x1="83.261818" x2="70.962502" y1="12.47644" y2="45.379456">
        <stop offset="0" stop-color="#26a269"/>
        <stop offset="1" stop-color="#57e389"/>
    </linearGradient>
    <g fill="none">
        <path d="m 7.070312 61.011719 h 86.421876" stroke="#99c1f1" stroke-linecap="round" stroke-width="6"/>
        <path d="m -201.898438 93.492187 c 0 5.558594 -2.964843 10.695313 -7.777343 13.472657 c -4.8125 2.78125 -10.742188 2.78125 -15.554688 0 c -4.816406 -2.777344 -7.78125 -7.914063 -7.78125 -13.472657" stroke="#99c1f1" stroke-linecap="round" stroke-width="6" transform="matrix(0 -1 1 0 0 -172)"/>
        <path d="m 7.070312 73.023438 h 92.546876" stroke="#99c1f1" stroke-linecap="round" stroke-width="6"/>
        <path d="m 281.574219 84.476562 c 6.851562 6.855469 8.25 17.453126 3.402343 25.847657 c -4.84375 8.394531 -14.722656 12.484375 -24.082031 9.976562 c -9.363281 -2.507812 -15.871093 -10.992187 -15.871093 -20.683593" stroke="#99c1f1" stroke-linecap="round" stroke-width="6" transform="matrix(0 1 1 0 0 -172)"/>
        <path d="m 7.070312 85.03125 h 52.910157" stroke="#99c1f1" stroke-linecap="round" stroke-width="6"/>
        <path d="m 268.714844 50.765625 c 4.648437 1.242187 7.574218 5.835937 6.738281 10.574219 c -0.835937 4.738281 -5.15625 8.054687 -9.949219 7.632812 c -4.792968 -0.417968 -8.472656 -4.433594 -8.472656 -9.242187" stroke="#99c1f1" stroke-linecap="round" stroke-width="6" transform="matrix(0 1 1 0 0 -172)"/>
    </g>
    <path d="m 86.828125 13.015625 c -3.664063 2.007813 -7.226563 4.300781 -10.105469 7.328125 c -4.78125 5.019531 -7.453125 11.984375 -7.25 18.914062 c -0.082031 -5.464843 1.796875 -10.9375 5.214844 -15.203124 c 2.125 -2.652344 4.828125 -4.839844 7.867188 -6.363282 c 1.804687 1.222656 3.101562 3.167969 3.535156 5.304688 c 0.359375 1.753906 0.144531 3.601562 -0.453125 5.292968 c -0.601563 1.691407 -1.578125 3.230469 -2.726563 4.605469 c -1.261718 1.503907 -2.730468 2.824219 -4.023437 4.296875 c -1.296875 1.476563 -2.441407 3.15625 -2.871094 5.070313 c -0.445313 1.964843 -0.09375 4.074219 0.882813 5.835937 c 1.035156 1.867188 2.761718 3.339844 4.773437 4.066406 c -3.707031 -0.429687 -7.328125 -1.578124 -10.609375 -3.359374 c -6.378906 -3.472657 -11.4375 -9.542969 -13.078125 -16.617188 c -0.839844 -3.613281 -0.785156 -7.464844 0.421875 -10.96875 s 3.609375 -6.632812 6.824219 -8.476562 c 1.988281 -1.140626 4.304687 -1.78125 6.582031 -1.519532 c 1.765625 0.203125 3.464844 0.953125 4.804688 2.121094 c 1.523437 -3.183594 4.574218 -5.59375 8.019531 -6.34375 c 1.105469 -0.242188 2.292969 -0.3125 3.339843 0.113281 c 0.523438 0.210938 1 0.550781 1.34375 1 s 0.542969 1.011719 0.523438 1.574219 c -0.011719 0.394531 -0.128906 0.777344 -0.316406 1.125 c -0.1875 0.34375 -0.441406 0.652344 -0.730469 0.917969 c -0.578125 0.53125 -1.28125 0.90625 -1.96875 1.285156 z m 0 0" fill="url(#a)"/>
    <path d="m 86.679688 6.804688 c -0.085938 0 -0.175782 0.015624 -0.265626 0.015624 c 0.503907 0.023438 1.003907 0.101563 1.472657 0.292969 c 0.523437 0.210938 1 0.550781 1.34375 0.996094 c 0.34375 0.449219 0.542969 1.011719 0.523437 1.578125 c -0.011718 0.390625 -0.128906 0.78125 -0.316406 1.125 s -0.441406 0.652344 -0.730469 0.917969 c -0.578125 0.535156 -1.28125 0.90625 -1.96875 1.285156 c -3.664062 2.007813 -7.222656 4.304687 -10.105469 7.328125 c -4.78125 5.019531 -7.449218 11.984375 -7.25 18.914062 c -0.054687 -3.734374 0.824219 -7.464843 2.464844 -10.820312 c 1.234375 -2.984375 2.996094 -5.753906 5.226563 -8.09375 c 2.882812 -3.023438 6.441406 -5.320312 10.105469 -7.328125 c 0.691406 -0.378906 1.390624 -0.75 1.96875 -1.285156 c 0.289062 -0.265625 0.542968 -0.574219 0.730468 -0.917969 s 0.308594 -0.734375 0.320313 -1.125 c 0.019531 -0.566406 -0.183594 -1.128906 -0.527344 -1.578125 c -0.34375 -0.445313 -0.820313 -0.785156 -1.34375 -0.996094 c -0.523437 -0.210937 -1.082031 -0.300781 -1.648437 -0.308593 z m -15.371094 4.363281 c -0.105469 -0.003907 -0.207032 0.003906 -0.3125 0.007812 c 0.242187 0.007813 0.484375 0.019531 0.726562 0.046875 c 1.765625 0.203125 3.464844 0.953125 4.804688 2.121094 c 0.042968 -0.085938 0.097656 -0.164062 0.136718 -0.246094 c -1.289062 -1.023437 -2.863281 -1.6875 -4.5 -1.875 c -0.285156 -0.03125 -0.570312 -0.050781 -0.855468 -0.054687 z m 11.597656 6.523437 c -0.085938 0.042969 -0.167969 0.09375 -0.257812 0.140625 c 1.707031 1.226563 2.933593 3.101563 3.351562 5.160157 c 0.359375 1.757812 0.148438 3.605468 -0.453125 5.296874 c -0.601563 1.691407 -1.578125 3.230469 -2.726563 4.605469 c -1.257812 1.503907 -2.726562 2.824219 -4.023437 4.300781 c -1.296875 1.472657 -2.4375 3.152344 -2.871094 5.066407 c -0.441406 1.964843 -0.089843 4.078125 0.882813 5.835937 c 0.996094 1.796875 2.636718 3.21875 4.546875 3.972656 c 0.222656 0.027344 0.445312 0.066407 0.667969 0.089844 c -2.007813 -0.722656 -3.738282 -2.195312 -4.773438 -4.0625 c -0.972656 -1.757812 -1.324219 -3.871094 -0.882812 -5.835937 c 0.433593 -1.914063 1.574218 -3.59375 2.871093 -5.070313 c 1.296875 -1.472656 2.765625 -2.792968 4.023438 -4.296875 c 1.148437 -1.375 2.125 -2.914062 2.726562 -4.605469 c 0.601563 -1.691406 0.8125 -3.539062 0.453125 -5.296874 c -0.433594 -2.132813 -1.730468 -4.078126 -3.535156 -5.300782 z m 0 0" fill="#57e389"/>
    <path d="m 7.070312 72 h 92.546876" fill="none" stroke="#c8def7" stroke-linecap="round" stroke-width="2"/>
    <path d="m 280.550781 84.476562 c 6.855469 6.855469 8.25 17.453126 3.402344 25.847657 c -4.84375 8.394531 -14.722656 12.484375 -24.082031 9.976562 c -9.363282 -2.507812 -15.871094 -10.992187 -15.871094 -20.683593" fill="none" stroke="#c8def7" stroke-linecap="round" stroke-width="2" transform="matrix(0 1 1 0 0 -172)"/>
    <path d="m 7.070312 60 h 86.421876" fill="none" stroke="#c8def7" stroke-linecap="round" stroke-width="2"/>
    <path d="m -200.886719 93.492187 c 0 5.558594 -2.964844 10.695313 -7.777344 13.472657 c -4.816406 2.78125 -10.746093 2.78125 -15.558593 0 c -4.8125 -2.777344 -7.777344 -7.914063 -7.777344 -13.472657" fill="none" stroke="#c8def7" stroke-linecap="round" stroke-width="2" transform="matrix(0 -1 1 0 0 -172)"/>
    <path d="m 7.070312 84 h 52.910157" fill="none" stroke="#c8def7" stroke-linecap="round" stroke-width="2"/>
    <path d="m 267.683594 50.765625 c 4.648437 1.242187 7.574218 5.835937 6.738281 10.574219 c -0.835937 4.738281 -5.15625 8.054687 -9.949219 7.632812 c -4.792968 -0.417968 -8.472656 -4.433594 -8.472656 -9.242187" fill="none" stroke="#c8def7" stroke-linecap="round" stroke-width="2" transform="matrix(0 1 1 0 0 -172)"/>
</svg>
