<?xml version="1.0" encoding="UTF-8" standalone="no"?>
<svg
   xmlns:dc="http://purl.org/dc/elements/1.1/"
   xmlns:cc="http://creativecommons.org/ns#"
   xmlns:rdf="http://www.w3.org/1999/02/22-rdf-syntax-ns#"
   xmlns:svg="http://www.w3.org/2000/svg"
   xmlns="http://www.w3.org/2000/svg"
   xmlns:xlink="http://www.w3.org/1999/xlink"
   xmlns:sodipodi="http://sodipodi.sourceforge.net/DTD/sodipodi-0.dtd"
   xmlns:inkscape="http://www.inkscape.org/namespaces/inkscape"
   height="64"
   width="64"
   version="1.1"
   id="svg57"
   sodipodi:docname="com.rafaelmardojai.Blanket-waves-symbolic.svg"
   inkscape:version="1.0.1 (3bc2e813f5, 2020-09-07)">
  <metadata
     id="metadata61">
    <rdf:RDF>
      <cc:Work
         rdf:about="">
        <dc:format>image/svg+xml</dc:format>
        <dc:type
           rdf:resource="http://purl.org/dc/dcmitype/StillImage" />
        <dc:title />
      </cc:Work>
    </rdf:RDF>
  </metadata>
  <sodipodi:namedview
     pagecolor="#ffffff"
     bordercolor="#666666"
     borderopacity="1"
     objecttolerance="10"
     gridtolerance="10"
     guidetolerance="10"
     inkscape:pageopacity="0"
     inkscape:pageshadow="2"
     inkscape:window-width="640"
     inkscape:window-height="480"
     id="namedview59"
     showgrid="true"
     showguides="true"
     inkscape:guide-bbox="true"
     inkscape:current-layer="svg57"
     inkscape:document-rotation="0">
    <inkscape:grid
       type="xygrid"
       id="grid63"
       empspacing="8" />
    <sodipodi:guide
       position="8,0"
       orientation="1,0"
       id="guide65" />
    <sodipodi:guide
       position="72,8"
       orientation="0,-1"
       id="guide67" />
    <sodipodi:guide
       position="56,-16"
       orientation="1,0"
       id="guide69" />
  </sodipodi:namedview>
  <defs
     id="defs29">
    <inkscape:path-effect
       effect="fillet_chamfer"
       id="path-effect4921"
       is_visible="true"
       lpeversion="1"
       satellites_param="F,0,1,1,0,0,0,1 @ F,0,0,1,0,10,0,1 @ F,0,0,1,0,13,0,1 @ F,0,0,1,0,12,0,1 @ F,0,0,1,0,4,0,1 @ F,0,0,1,0,4,0,1 @ F,0,0,1,0,4,0,1 @ F,0,0,1,0,4,0,1 @ F,0,0,1,0,4,0,1 @ F,0,0,1,0,4,0,1 @ F,0,0,1,0,6,0,1 @ F,0,0,1,0,6,0,1 @ F,0,0,1,0,0,0,1"
       unit="px"
       method="auto"
       mode="F"
       radius="0"
       chamfer_steps="1"
       flexible="false"
       use_knot_distance="true"
       apply_no_radius="true"
       apply_with_radius="true"
       only_selected="false"
       hide_knots="false" />
    <linearGradient
       id="b">
      <stop
         offset="0"
         stop-color="#646368"
         id="stop2" />
      <stop
         offset=".06"
         stop-color="#88878b"
         id="stop4" />
      <stop
         offset=".133"
         stop-color="#77767b"
         id="stop6" />
      <stop
         offset=".827"
         stop-color="#77767b"
         id="stop8" />
      <stop
         offset=".915"
         stop-color="#9f9ea2"
         id="stop10" />
      <stop
         offset="1"
         stop-color="#656468"
         id="stop12" />
    </linearGradient>
    <linearGradient
       id="a">
      <stop
         offset="0"
         stop-color="#3584e4"
         id="stop15" />
      <stop
         offset=".091"
         stop-color="#6ba5ec"
         id="stop17" />
      <stop
         offset=".173"
         stop-color="#3584e4"
         id="stop19" />
      <stop
         offset=".835"
         stop-color="#3584e4"
         id="stop21" />
      <stop
         offset=".922"
         stop-color="#8db9f0"
         id="stop23" />
      <stop
         offset="1"
         stop-color="#3584e4"
         id="stop25" />
    </linearGradient>
    <linearGradient
       xlink:href="#b"
       id="c"
       x1="7.165"
       y1="56.174"
       x2="120"
       y2="56.174"
       gradientUnits="userSpaceOnUse" />
  </defs>
  <path
     style="color:#000000;font-style:normal;font-variant:normal;font-weight:normal;font-stretch:normal;font-size:medium;line-height:normal;font-family:sans-serif;font-variant-ligatures:normal;font-variant-position:normal;font-variant-caps:normal;font-variant-numeric:normal;font-variant-alternates:normal;font-variant-east-asian:normal;font-feature-settings:normal;font-variation-settings:normal;text-indent:0;text-align:start;text-decoration:none;text-decoration-line:none;text-decoration-style:solid;text-decoration-color:#000000;letter-spacing:normal;word-spacing:normal;text-transform:none;writing-mode:lr-tb;direction:ltr;text-orientation:mixed;dominant-baseline:auto;baseline-shift:baseline;text-anchor:start;white-space:normal;shape-padding:0;shape-margin:0;inline-size:0;clip-rule:nonzero;display:inline;overflow:visible;visibility:visible;isolation:auto;mix-blend-mode:normal;color-interpolation:sRGB;color-interpolation-filters:linearRGB;solid-color:#000000;solid-opacity:1;vector-effect:none;fill:#77767b;fill-opacity:1;fill-rule:nonzero;stroke:none;stroke-width:1.99999;stroke-linecap:round;stroke-linejoin:miter;stroke-miterlimit:4;stroke-dasharray:none;stroke-dashoffset:0;stroke-opacity:1;color-rendering:auto;image-rendering:auto;shape-rendering:auto;text-rendering:auto;enable-background:accumulate;stop-color:#000000;stop-opacity:1;opacity:1"
     d="M 29 15 C 21.279861 15 15 21.279861 15 29 L 15 38.001953 C 15.012774 44.107839 12.599497 49.968376 8.2910156 54.294922 A 0.99999499 0.99999499 0 0 0 8.2949219 55.708984 A 0.99999499 0.99999499 0 0 0 9.7089844 55.705078 C 14.390747 51.003686 17.01336 44.63484 17 38 L 17 37.998047 L 17 29 C 17 22.360736 22.360736 17 29 17 L 36 17 C 42.08698 17 47 21.91302 47 28 C 47 29.668702 45.668702 31 44 31 C 41.250424 31 39 33.250424 39 36 C 39 37.668702 37.668702 39 36 39 C 34.331298 39 33 37.668702 33 36 L 33 28 C 33 25.250424 30.749576 23 28 23 C 25.250424 23 23 25.250424 23 28 L 23 42 C 23 46.106566 24.631375 50.045438 27.535156 52.949219 L 27.544922 52.958984 L 27.552734 52.966797 C 30.370152 55.646102 34.13862 57.09766 38.025391 57 L 56 57 A 0.99999499 0.99999499 0 0 0 57 56 A 0.99999499 0.99999499 0 0 0 56 55 L 37.988281 55 L 37.974609 55 C 34.619726 55.084296 31.370532 53.832627 28.9375 51.521484 C 26.416288 48.993474 25 45.570841 25 42 L 25 28 C 25 26.331298 26.331298 25 28 25 C 29.668702 25 31 26.331298 31 28 L 31 36 C 31 38.749576 33.250424 41 36 41 C 38.749576 41 41 38.749576 41 36 C 41 34.331298 42.331298 33 44 33 C 46.749576 33 49 30.749576 49 28 C 49 20.832146 43.167854 15 36 15 L 29 15 z "
     id="path2195" />
  <path
     style="color:#000000;font-style:normal;font-variant:normal;font-weight:normal;font-stretch:normal;font-size:medium;line-height:normal;font-family:sans-serif;font-variant-ligatures:normal;font-variant-position:normal;font-variant-caps:normal;font-variant-numeric:normal;font-variant-alternates:normal;font-variant-east-asian:normal;font-feature-settings:normal;font-variation-settings:normal;text-indent:0;text-align:start;text-decoration:none;text-decoration-line:none;text-decoration-style:solid;text-decoration-color:#000000;letter-spacing:normal;word-spacing:normal;text-transform:none;writing-mode:lr-tb;direction:ltr;text-orientation:mixed;dominant-baseline:auto;baseline-shift:baseline;text-anchor:start;white-space:normal;shape-padding:0;shape-margin:0;inline-size:0;clip-rule:nonzero;display:inline;overflow:visible;visibility:visible;isolation:auto;mix-blend-mode:normal;color-interpolation:sRGB;color-interpolation-filters:linearRGB;solid-color:#000000;solid-opacity:1;vector-effect:none;fill:#77767b;fill-opacity:1;fill-rule:nonzero;stroke:none;stroke-width:1.99999;stroke-linecap:round;stroke-linejoin:miter;stroke-miterlimit:4;stroke-dasharray:none;stroke-dashoffset:0;stroke-opacity:1;color-rendering:auto;image-rendering:auto;shape-rendering:auto;text-rendering:auto;enable-background:accumulate;stop-color:#000000;stop-opacity:1;opacity:1"
     d="M 45.919922 38.966797 C 43.702439 38.966797 41.882813 40.786423 41.882812 43.003906 C 41.882813 45.221389 43.702439 47.039062 45.919922 47.039062 C 48.137405 47.039062 49.955078 45.221389 49.955078 43.003906 C 49.955078 40.786423 48.137405 38.966797 45.919922 38.966797 z M 45.919922 40.966797 C 47.05653 40.966797 47.955078 41.867298 47.955078 43.003906 C 47.955078 44.140515 47.05653 45.039062 45.919922 45.039062 C 44.783314 45.039062 43.882813 44.140515 43.882812 43.003906 C 43.882813 41.867298 44.783314 40.966797 45.919922 40.966797 z "
     id="path2191" />
</svg>
