<?xml version="1.0" encoding="UTF-8"?>
<svg height="128px" viewBox="0 0 128 128" width="128px" xmlns="http://www.w3.org/2000/svg" xmlns:xlink="http://www.w3.org/1999/xlink">
    <linearGradient id="a" gradientUnits="userSpaceOnUse" x1="8" x2="120" y1="103.99998475" y2="103.99998475">
        <stop offset="0" stop-color="#63452c"/>
        <stop offset="0.0384615" stop-color="#986a44"/>
        <stop offset="0.0769231" stop-color="#63452c"/>
        <stop offset="0.923077" stop-color="#63452c"/>
        <stop offset="0.961538" stop-color="#986a44"/>
        <stop offset="1" stop-color="#63452c"/>
    </linearGradient>
    <clipPath id="b">
        <path d="m 16 36 h 84 v 30 h -84 z m 0 0"/>
    </clipPath>
    <clipPath id="c">
        <path d="m 16 36 h 84 v 23 h -84 z m 0 0"/>
    </clipPath>
    <clipPath id="d">
        <path d="m 16 36 h 84 v 36 h -84 z m 0 0"/>
    </clipPath>
    <clipPath id="e">
        <path d="m 16 36 h 84 v 43 h -84 z m 0 0"/>
    </clipPath>
    <clipPath id="f">
        <path d="m 16 36 h 84 v 50 h -84 z m 0 0"/>
    </clipPath>
    <clipPath id="g">
        <path d="m 16 36 h 84 v 56 h -84 z m 0 0"/>
    </clipPath>
    <clipPath id="h">
        <path d="m 16 41 h 84 v 58 h -84 z m 0 0"/>
    </clipPath>
    <clipPath id="i">
        <path d="m 16 47 h 84 v 57 h -84 z m 0 0"/>
    </clipPath>
    <clipPath id="j">
        <path d="m 16 54 h 84 v 50 h -84 z m 0 0"/>
    </clipPath>
    <clipPath id="k">
        <path d="m 16 61 h 84 v 43 h -84 z m 0 0"/>
    </clipPath>
    <clipPath id="l">
        <path d="m 16 67 h 84 v 37 h -84 z m 0 0"/>
    </clipPath>
    <clipPath id="m">
        <path d="m 16 74 h 84 v 30 h -84 z m 0 0"/>
    </clipPath>
    <clipPath id="n">
        <path d="m 16 81 h 84 v 23 h -84 z m 0 0"/>
    </clipPath>
    <filter id="o" height="100%" width="100%" x="0%" y="0%">
        <feColorMatrix in="SourceGraphic" type="matrix" values="0 0 0 0 1 0 0 0 0 1 0 0 0 0 1 0 0 0 1 0"/>
    </filter>
    <mask id="p">
        <g filter="url(#o)">
            <rect fill-opacity="0.2" height="128" width="128"/>
        </g>
    </mask>
    <radialGradient id="q" cx="63.999996" cy="194.190475" gradientTransform="matrix(-4.136364 -0.00000125 -0.00000027 1.390909 327.227295 -155.106455)" gradientUnits="userSpaceOnUse" r="44">
        <stop offset="0" stop-color="#ffffff"/>
        <stop offset="1" stop-color="#ffffff" stop-opacity="0.094118"/>
    </radialGradient>
    <clipPath id="r">
        <rect height="152" width="192"/>
    </clipPath>
    <path d="m 16 28 h 96 c 4.417969 0 8 3.582031 8 8 v 70 c 0 4.417969 -3.582031 8 -8 8 h -96 c -4.417969 0 -8 -3.582031 -8 -8 v -70 c 0 -4.417969 3.582031 -8 8 -8 z m 0 0" fill="#986a44"/>
    <path d="m 16 32 h 84 c 2.210938 0 4 1.789062 4 4 v 68 c 0 2.210938 -1.789062 4 -4 4 h -84 c -2.210938 0 -4 -1.789062 -4 -4 v -68 c 0 -2.210938 1.789062 -4 4 -4 z m 0 0" fill="#63452c"/>
    <path d="m 8 104 v 4 c 0 4.433594 3.566406 8 8 8 h 96 c 4.433594 0 8 -3.566406 8 -8 v -4 c 0 4.433594 -3.566406 8 -8 8 h -96 c -4.433594 0 -8 -3.566406 -8 -8 z m 0 0" fill="url(#a)"/>
    <path d="m 16 104 h 84 v -68 h -84 z m 0 0" fill="#77767b"/>
    <path d="m 116 62 v 4 c 0 2.210938 -1.789062 4 -4 4 s -4 -1.789062 -4 -4 v -2 l 4 -2 z m 0 0" fill="#949390"/>
    <path d="m 116 78 v 6 h -4 c -2.214844 0 -4 -1.785156 -4 -4 v -2 z m 0 0" fill="#949390"/>
    <path d="m 116 82 v -4 c 0 -2.210938 -1.789062 -4 -4 -4 s -4 1.789062 -4 4 s 1.789062 4 4 4 z m 0 0" fill="#d5d3cf"/>
    <path d="m 113 80 c 0 0.550781 0.449219 1 1 1 s 1 -0.449219 1 -1 s -0.449219 -1 -1 -1 s -1 0.449219 -1 1 z m 0 0" fill="#68676b"/>
    <path d="m 116 60 v 4 c 0 2.210938 -1.789062 4 -4 4 s -4 -1.789062 -4 -4 s 1.789062 -4 4 -4 z m 0 0" fill="#d5d3cf"/>
    <path d="m 113 62 c 0 -0.550781 0.449219 -1 1 -1 s 1 0.449219 1 1 s -0.449219 1 -1 1 s -1 -0.449219 -1 -1 z m 0 0" fill="#68676b"/>
    <path d="m 108 48 v 4 c 0 2.210938 1.789062 4 4 4 s 4 -1.789062 4 -4 v -2 l -4 -2 z m 0 0" fill="#949390"/>
    <path d="m 108 46 v 4 c 0 2.210938 1.789062 4 4 4 s 4 -1.789062 4 -4 s -1.789062 -4 -4 -4 z m 0 0" fill="#d5d3cf"/>
    <path d="m 111 48 c 0 -0.550781 -0.449219 -1 -1 -1 s -1 0.449219 -1 1 s 0.449219 1 1 1 s 1 -0.449219 1 -1 z m 0 0" fill="#68676b"/>
    <path d="m 116 36 v 6 h -4 c -2.214844 0 -4 -1.785156 -4 -4 v -2 z m 0 0" fill="#949390"/>
    <path d="m 116 40 v -4 c 0 -2.210938 -1.789062 -4 -4 -4 s -4 1.789062 -4 4 s 1.789062 4 4 4 z m 0 0" fill="#d5d3cf"/>
    <path d="m 113 38 c 0 0.550781 0.449219 1 1 1 s 1 -0.449219 1 -1 s -0.449219 -1 -1 -1 s -1 0.449219 -1 1 z m 0 0" fill="#68676b"/>
    <g clip-path="url(#b)">
        <path d="m -16.640625 65.179688 l 8.820313 -10.976563 l 14.15625 2.371094 l 8.824218 -10.976563 l 14.15625 2.367188 l 8.820313 -10.976563 l 14.160156 2.371094 l 8.820313 -10.976563 l 14.15625 2.367188 l 8.820312 -10.972656 l 14.160156 2.367187 l 8.820313 -10.976562 l 14.15625 2.367187 l -1.332031 -3.335937 l -14.15625 -2.367188 l -8.824219 10.976563 l -14.15625 -2.367188 l -8.820313 10.972656 l -14.160156 -2.367187 l -8.820312 10.976563 l -14.15625 -2.371094 l -8.824219 10.976562 l -14.15625 -2.367187 l -8.820313 10.976562 l -14.160156 -2.371093 l -8.820312 10.976562 z m 0 0" fill="#44414a"/>
    </g>
    <g clip-path="url(#c)">
        <path d="m -19.308594 58.507812 l 8.820313 -10.976562 l 14.15625 2.371094 l 8.820312 -10.976563 l 14.160157 2.367188 l 8.820312 -10.972657 l 14.15625 2.367188 l 8.824219 -10.976562 l 14.15625 2.367187 l 8.820312 -10.972656 l 14.160157 2.367187 l 8.820312 -10.976562 l 14.15625 2.371094 l -1.332031 -3.335938 l -14.15625 -2.371094 l -8.824219 10.976563 l -14.15625 -2.367188 l -8.820312 10.972657 l -14.160157 -2.367188 l -8.820312 10.976562 l -14.15625 -2.367187 l -8.824219 10.972656 l -14.15625 -2.367187 l -8.820312 10.976562 l -14.160157 -2.371094 l -8.820312 10.976563 z m 0 0" fill="#44414a"/>
    </g>
    <g clip-path="url(#d)">
        <path d="m -13.972656 71.851562 l 8.820312 -10.976562 l 14.15625 2.371094 l 8.824219 -10.976563 l 14.15625 2.367188 l 8.820313 -10.976563 l 14.160156 2.371094 l 8.820312 -10.976562 l 14.15625 2.367187 l 8.820313 -10.972656 l 14.160156 2.367187 l 8.820313 -10.976562 l 14.15625 2.367187 l -1.332032 -3.335937 l -14.15625 -2.367188 l -8.824218 10.976563 l -14.15625 -2.367188 l -8.820313 10.972657 l -14.160156 -2.367188 l -8.820313 10.976562 l -14.15625 -2.371093 l -8.824218 10.976562 l -14.15625 -2.367187 l -8.820313 10.976562 l -14.160156 -2.371094 l -8.820313 10.976563 z m 0 0" fill="#44414a"/>
    </g>
    <g clip-path="url(#e)">
        <path d="m -11.304688 78.523438 l 8.820313 -10.976563 l 14.15625 2.371094 l 8.824219 -10.976563 l 14.15625 2.367188 l 8.820312 -10.976563 l 14.160156 2.371094 l 8.820313 -10.976563 l 14.15625 2.367188 l 8.824219 -10.972656 l 14.15625 2.367187 l 8.820312 -10.976562 l 14.15625 2.367187 l -1.332031 -3.335937 l -14.15625 -2.367188 l -8.824219 10.976563 l -14.15625 -2.367188 l -8.820312 10.972656 l -14.160156 -2.367187 l -8.820313 10.976563 l -14.15625 -2.371094 l -8.824219 10.976562 l -14.15625 -2.367187 l -8.820312 10.976562 l -14.160156 -2.371093 l -8.820313 10.976562 z m 0 0" fill="#44414a"/>
    </g>
    <g clip-path="url(#f)">
        <path d="m -8.636719 85.195312 l 8.820313 -10.976562 l 14.15625 2.367188 l 8.824218 -10.972657 l 14.15625 2.367188 l 8.820313 -10.976563 l 14.160156 2.371094 l 8.820313 -10.976562 l 14.15625 2.367187 l 8.824218 -10.972656 l 14.15625 2.367187 l 8.820313 -10.976562 l 14.160156 2.367187 l -1.335937 -3.335937 l -14.15625 -2.367188 l -8.824219 10.976563 l -14.15625 -2.367188 l -8.820313 10.972657 l -14.160156 -2.367188 l -8.820312 10.976562 l -14.15625 -2.371093 l -8.824219 10.976562 l -14.15625 -2.367187 l -8.820313 10.976562 l -14.160156 -2.371094 l -8.820312 10.976563 z m 0 0" fill="#44414a"/>
    </g>
    <g clip-path="url(#g)">
        <path d="m -5.96875 91.867188 l 8.820312 -10.976563 l 14.15625 2.367187 l 8.824219 -10.972656 l 14.15625 2.367188 l 8.820313 -10.976563 l 14.160156 2.371094 l 8.820312 -10.976563 l 14.15625 2.367188 l 8.824219 -10.972656 l 14.15625 2.367187 l 8.820313 -10.976562 l 14.160156 2.367187 l -1.335938 -3.335937 l -14.15625 -2.367188 l -8.824218 10.976563 l -14.15625 -2.367188 l -8.820313 10.972656 l -14.160156 -2.367187 l -8.820313 10.976563 l -14.15625 -2.371094 l -8.824218 10.976562 l -14.15625 -2.367187 l -8.820313 10.972656 l -14.160156 -2.367187 l -8.820313 10.976562 z m 0 0" fill="#44414a"/>
    </g>
    <g clip-path="url(#h)">
        <path d="m -3.300781 98.539062 l 8.820312 -10.976562 l 14.15625 2.367188 l 8.824219 -10.972657 l 14.15625 2.367188 l 8.820312 -10.976563 l 14.160157 2.371094 l 8.820312 -10.976562 l 14.15625 2.367187 l 8.824219 -10.976563 l 14.15625 2.371094 l 8.820312 -10.976562 l 14.160157 2.367187 l -1.335938 -3.335937 l -14.15625 -2.367188 l -8.824219 10.976563 l -14.15625 -2.367188 l -8.820312 10.972657 l -14.160156 -2.367188 l -8.820313 10.976562 l -14.15625 -2.371093 l -8.824219 10.976562 l -14.15625 -2.367187 l -8.820312 10.972656 l -14.160156 -2.367188 l -8.820313 10.976563 z m 0 0" fill="#44414a"/>
    </g>
    <g clip-path="url(#i)">
        <path d="m -0.632812 105.210938 l 8.820312 -10.976563 l 14.15625 2.367187 l 8.824219 -10.972656 l 14.15625 2.367188 l 8.820312 -10.976563 l 14.160157 2.371094 l 8.820312 -10.976563 l 14.15625 2.367188 l 8.824219 -10.976562 l 14.15625 2.371093 l 8.820312 -10.976562 l 14.160157 2.367187 l -1.335938 -3.335937 l -14.15625 -2.367188 l -8.824219 10.976563 l -14.15625 -2.371094 l -8.820312 10.976562 l -14.160157 -2.367187 l -8.820312 10.976563 l -14.15625 -2.371094 l -8.824219 10.976562 l -14.15625 -2.367187 l -8.820312 10.972656 l -14.160157 -2.367187 l -8.820312 10.976562 z m 0 0" fill="#44414a"/>
    </g>
    <g clip-path="url(#j)">
        <path d="m 2.035156 111.882812 l 8.820313 -10.976562 l 14.15625 2.367188 l 8.824219 -10.972657 l 14.15625 2.367188 l 8.820312 -10.976563 l 14.160156 2.371094 l 8.820313 -10.976562 l 14.15625 2.367187 l 8.824219 -10.976563 l 14.15625 2.371094 l 8.820312 -10.976562 l 14.160156 2.367187 l -1.335937 -3.335937 l -14.15625 -2.367188 l -8.824219 10.976563 l -14.15625 -2.371094 l -8.820312 10.976563 l -14.160157 -2.367188 l -8.820312 10.976562 l -14.15625 -2.371093 l -8.824219 10.976562 l -14.15625 -2.367187 l -8.820312 10.972656 l -14.160157 -2.367188 l -8.820312 10.976563 z m 0 0" fill="#44414a"/>
    </g>
    <g clip-path="url(#k)">
        <path d="m 4.703125 118.554688 l 8.820313 -10.976563 l 14.15625 2.367187 l 8.824218 -10.972656 l 14.15625 2.367188 l 8.820313 -10.976563 l 14.160156 2.371094 l 8.820313 -10.976563 l 14.15625 2.367188 l 8.824218 -10.976562 l 14.15625 2.371093 l 8.820313 -10.976562 l 14.160156 2.367187 l -1.335937 -3.335937 l -14.15625 -2.367188 l -8.824219 10.976563 l -14.15625 -2.371094 l -8.820313 10.976562 l -14.160156 -2.367187 l -8.820312 10.976563 l -14.15625 -2.371094 l -8.820313 10.976562 l -14.160156 -2.367187 l -8.820313 10.972656 l -14.15625 -2.367187 l -8.824218 10.976562 z m 0 0" fill="#44414a"/>
    </g>
    <g clip-path="url(#l)">
        <path d="m 7.371094 125.226562 l 8.820312 -10.976562 l 14.15625 2.367188 l 8.824219 -10.972657 l 14.15625 2.367188 l 8.820313 -10.976563 l 14.160156 2.367188 l 8.820312 -10.972656 l 14.15625 2.367187 l 8.824219 -10.976563 l 14.15625 2.371094 l 8.820313 -10.976562 l 14.160156 2.367187 l -1.335938 -3.335937 l -14.15625 -2.367188 l -8.824218 10.976563 l -14.15625 -2.371094 l -8.820313 10.976563 l -14.160156 -2.367188 l -8.820313 10.972656 l -14.15625 -2.367187 l -8.820312 10.976562 l -14.160156 -2.367187 l -8.820313 10.972656 l -14.15625 -2.367188 l -8.824219 10.976563 z m 0 0" fill="#44414a"/>
    </g>
    <g clip-path="url(#m)">
        <path d="m 10.039062 131.898438 l 8.820313 -10.976563 l 14.15625 2.367187 l 8.824219 -10.972656 l 14.15625 2.367188 l 8.820312 -10.976563 l 14.160156 2.367188 l 8.820313 -10.972657 l 14.15625 2.367188 l 8.824219 -10.976562 l 14.15625 2.371093 l 8.820312 -10.976562 l 14.160156 2.367187 l -1.335937 -3.335937 l -14.15625 -2.367188 l -8.824219 10.976563 l -14.15625 -2.371094 l -8.820312 10.976562 l -14.160156 -2.367187 l -8.820313 10.972656 l -14.15625 -2.367187 l -8.820313 10.976562 l -14.160156 -2.367187 l -8.820312 10.972656 l -14.15625 -2.367187 l -8.824219 10.976562 z m 0 0" fill="#44414a"/>
    </g>
    <g clip-path="url(#n)">
        <path d="m 12.707031 138.570312 l 8.820313 -10.976562 l 14.15625 2.367188 l 8.824218 -10.972657 l 14.15625 2.367188 l 8.820313 -10.976563 l 14.160156 2.367188 l 8.820313 -10.972656 l 14.15625 2.367187 l 8.824218 -10.976563 l 14.15625 2.371094 l 8.820313 -10.976562 l 14.160156 2.367187 l -1.335937 -3.335937 l -14.15625 -2.367188 l -8.820313 10.976563 l -14.160156 -2.371094 l -8.820313 10.976563 l -14.15625 -2.367188 l -8.824218 10.972656 l -14.15625 -2.367187 l -8.820313 10.976562 l -14.160156 -2.367187 l -8.820313 10.972656 l -14.15625 -2.367188 l -8.824218 10.976563 z m 0 0" fill="#44414a"/>
    </g>
    <g clip-path="url(#r)" mask="url(#p)" transform="matrix(1 0 0 1 -8 -16)">
        <path d="m 24 119.527344 h 84 v -68 h -84 z m 0 0" fill="url(#q)"/>
    </g>
    <path d="m 60 28 l -18 -14 h 4 l 18 14 z m 0 0"/>
    <path d="m 46.5 14 c 0 1.378906 -1.121094 2.5 -2.5 2.5 s -2.5 -1.121094 -2.5 -2.5 s 1.121094 -2.5 2.5 -2.5 s 2.5 1.121094 2.5 2.5 z m 0 0"/>
    <path d="m 68 28 l 18 -14 h -4 l -18 14 z m 0 0"/>
    <path d="m 81.5 14 c 0 1.378906 1.121094 2.5 2.5 2.5 s 2.5 -1.121094 2.5 -2.5 s -1.121094 -2.5 -2.5 -2.5 s -2.5 1.121094 -2.5 2.5 z m 0 0"/>
</svg>
