<svg xmlns="http://www.w3.org/2000/svg" xmlns:xlink="http://www.w3.org/1999/xlink" height="128" width="128"><defs><linearGradient id="b"><stop offset="0" stop-color="#646368"/><stop offset=".06" stop-color="#88878b"/><stop offset=".133" stop-color="#77767b"/><stop offset=".827" stop-color="#77767b"/><stop offset=".915" stop-color="#9f9ea2"/><stop offset="1" stop-color="#656468"/></linearGradient><linearGradient id="a"><stop offset="0" stop-color="#3584e4"/><stop offset=".091" stop-color="#6ba5ec"/><stop offset=".173" stop-color="#3584e4"/><stop offset=".835" stop-color="#3584e4"/><stop offset=".922" stop-color="#8db9f0"/><stop offset="1" stop-color="#3584e4"/></linearGradient><linearGradient xlink:href="#b" id="c" x1="7.165" y1="56.174" x2="120" y2="56.174" gradientUnits="userSpaceOnUse"/></defs><g fill="#62a0ea" stroke-linecap="round"><path d="M28.512 118.492l8.023-25.426" stroke="#62a0ea" stroke-width="4"/><path d="M28.129 118.39l8.023-25.425" stroke="#c8def7"/><path d="M42.512 118.492l8.023-25.426" stroke="#62a0ea" stroke-width="4"/><path d="M42.129 118.39l8.023-25.425" stroke="#c8def7"/><path d="M56.512 118.492l8.023-25.426" stroke="#62a0ea" stroke-width="4"/><path d="M56.129 118.39l8.023-25.425" stroke="#c8def7"/><path d="M70.512 118.492l8.023-25.426" stroke="#62a0ea" stroke-width="4"/><path d="M70.129 118.39l8.023-25.425" stroke="#c8def7"/><path d="M84.512 118.492l8.023-25.426" stroke="#62a0ea" stroke-width="4"/><path d="M84.129 118.39l8.023-25.425" stroke="#c8def7"/></g><path d="M79.492 24.348a28.926 28.926 0 00-26.265 16.879 21.711 21.711 0 00-9.899-2.414c-11.414.015-20.867 8.867-21.625 20.257-.023 0-.05 0-.074-.004-5.93 0-11.02 3.575-13.254 8.68h-1.21V69C7.164 80 15 88 26 88h72c14 0 22-9 22-22v-1.145h-1.023a17.36 17.36 0 00-10.602-10.582c.023-.328.04-.66.05-.992 0-15.98-12.952-28.933-28.933-28.933zm0 0" fill="url(#c)"/><path d="M79.492 18.063A28.926 28.926 0 0053.227 34.94a21.711 21.711 0 00-9.899-2.414c-11.414.012-20.867 8.868-21.625 20.258-.023-.004-.05-.004-.074-.004-7.988 0-14.469 6.477-14.469 14.465 0 7.992 6.48 14.469 14.469 14.469h81.012c9.586 0 17.359-7.774 17.359-17.36a17.358 17.358 0 00-11.625-16.367c.023-.332.04-.664.05-.992 0-15.98-12.952-28.933-28.933-28.933zm0 0" fill="#9a9996"/></svg>