<?xml version="1.0" encoding="UTF-8" standalone="no"?>
<svg
   xmlns:dc="http://purl.org/dc/elements/1.1/"
   xmlns:cc="http://creativecommons.org/ns#"
   xmlns:rdf="http://www.w3.org/1999/02/22-rdf-syntax-ns#"
   xmlns:svg="http://www.w3.org/2000/svg"
   xmlns="http://www.w3.org/2000/svg"
   xmlns:xlink="http://www.w3.org/1999/xlink"
   xmlns:sodipodi="http://sodipodi.sourceforge.net/DTD/sodipodi-0.dtd"
   xmlns:inkscape="http://www.inkscape.org/namespaces/inkscape"
   height="64"
   width="64"
   version="1.1"
   id="svg57"
   sodipodi:docname="com.rafaelmardojai.Blanket-stream-symbolic.svg"
   inkscape:version="1.0.1 (3bc2e813f5, 2020-09-07)">
  <metadata
     id="metadata61">
    <rdf:RDF>
      <cc:Work
         rdf:about="">
        <dc:format>image/svg+xml</dc:format>
        <dc:type
           rdf:resource="http://purl.org/dc/dcmitype/StillImage" />
        <dc:title />
      </cc:Work>
    </rdf:RDF>
  </metadata>
  <sodipodi:namedview
     pagecolor="#ffffff"
     bordercolor="#666666"
     borderopacity="1"
     objecttolerance="10"
     gridtolerance="10"
     guidetolerance="10"
     inkscape:pageopacity="0"
     inkscape:pageshadow="2"
     inkscape:window-width="640"
     inkscape:window-height="480"
     id="namedview59"
     showgrid="false"
     showguides="true"
     inkscape:guide-bbox="true"
     inkscape:current-layer="svg57"
     inkscape:document-rotation="0">
    <inkscape:grid
       type="xygrid"
       id="grid63"
       empspacing="8" />
    <sodipodi:guide
       position="8,0"
       orientation="1,0"
       id="guide65" />
    <sodipodi:guide
       position="72,8"
       orientation="0,-1"
       id="guide67" />
    <sodipodi:guide
       position="56,-16"
       orientation="1,0"
       id="guide69" />
  </sodipodi:namedview>
  <defs
     id="defs29">
    <inkscape:path-effect
       effect="spiro"
       id="path-effect4985"
       is_visible="true"
       lpeversion="1" />
    <inkscape:path-effect
       effect="spiro"
       id="path-effect4981"
       is_visible="true"
       lpeversion="1" />
    <inkscape:path-effect
       effect="spiro"
       id="path-effect4977"
       is_visible="true"
       lpeversion="1" />
    <inkscape:path-effect
       effect="fillet_chamfer"
       id="path-effect4968"
       is_visible="true"
       lpeversion="1"
       satellites_param="F,0,0,1,0,0,0,1 @ F,0,0,1,0,8,0,1 @ F,0,0,1,0,8,0,1 @ F,0,0,1,0,8,0,1 @ F,0,0,1,0,5,0,1 @ F,0,0,1,0,8,0,1 @ F,0,0,1,0,8,0,1 @ F,0,0,1,0,0,0,1"
       unit="px"
       method="auto"
       mode="F"
       radius="0"
       chamfer_steps="1"
       flexible="false"
       use_knot_distance="true"
       apply_no_radius="true"
       apply_with_radius="true"
       only_selected="false"
       hide_knots="false" />
    <inkscape:path-effect
       effect="fillet_chamfer"
       id="path-effect4959"
       is_visible="true"
       lpeversion="1"
       satellites_param="F,0,0,1,0,0,0,1 @ F,0,0,1,0,11.313708,0,1 @ F,0,0,1,0,11.313708,0,1 @ F,0,0,1,0,11.313708,0,1 @ F,0,0,1,0,0,0,1 @ F,0,0,1,0,0,0,1 @ F,0,0,1,0,0,0,1"
       unit="px"
       method="auto"
       mode="F"
       radius="0"
       chamfer_steps="1"
       flexible="false"
       use_knot_distance="true"
       apply_no_radius="true"
       apply_with_radius="true"
       only_selected="false"
       hide_knots="false" />
    <inkscape:path-effect
       effect="fillet_chamfer"
       id="path-effect4921"
       is_visible="true"
       lpeversion="1"
       satellites_param="F,0,1,1,0,0,0,1 @ F,0,0,1,0,10,0,1 @ F,0,0,1,0,13,0,1 @ F,0,0,1,0,12,0,1 @ F,0,0,1,0,4,0,1 @ F,0,0,1,0,4,0,1 @ F,0,0,1,0,4,0,1 @ F,0,0,1,0,4,0,1 @ F,0,0,1,0,4,0,1 @ F,0,0,1,0,4,0,1 @ F,0,0,1,0,6,0,1 @ F,0,0,1,0,6,0,1 @ F,0,0,1,0,0,0,1"
       unit="px"
       method="auto"
       mode="F"
       radius="0"
       chamfer_steps="1"
       flexible="false"
       use_knot_distance="true"
       apply_no_radius="true"
       apply_with_radius="true"
       only_selected="false"
       hide_knots="false" />
    <linearGradient
       id="b">
      <stop
         offset="0"
         stop-color="#646368"
         id="stop2" />
      <stop
         offset=".06"
         stop-color="#88878b"
         id="stop4" />
      <stop
         offset=".133"
         stop-color="#77767b"
         id="stop6" />
      <stop
         offset=".827"
         stop-color="#77767b"
         id="stop8" />
      <stop
         offset=".915"
         stop-color="#9f9ea2"
         id="stop10" />
      <stop
         offset="1"
         stop-color="#656468"
         id="stop12" />
    </linearGradient>
    <linearGradient
       id="a">
      <stop
         offset="0"
         stop-color="#3584e4"
         id="stop15" />
      <stop
         offset=".091"
         stop-color="#6ba5ec"
         id="stop17" />
      <stop
         offset=".173"
         stop-color="#3584e4"
         id="stop19" />
      <stop
         offset=".835"
         stop-color="#3584e4"
         id="stop21" />
      <stop
         offset=".922"
         stop-color="#8db9f0"
         id="stop23" />
      <stop
         offset="1"
         stop-color="#3584e4"
         id="stop25" />
    </linearGradient>
    <linearGradient
       xlink:href="#b"
       id="c"
       x1="7.165"
       y1="56.174"
       x2="120"
       y2="56.174"
       gradientUnits="userSpaceOnUse" />
  </defs>
  <path
     style="color:#000000;font-style:normal;font-variant:normal;font-weight:normal;font-stretch:normal;font-size:medium;line-height:normal;font-family:sans-serif;font-variant-ligatures:normal;font-variant-position:normal;font-variant-caps:normal;font-variant-numeric:normal;font-variant-alternates:normal;font-variant-east-asian:normal;font-feature-settings:normal;font-variation-settings:normal;text-indent:0;text-align:start;text-decoration:none;text-decoration-line:none;text-decoration-style:solid;text-decoration-color:#000000;letter-spacing:normal;word-spacing:normal;text-transform:none;writing-mode:lr-tb;direction:ltr;text-orientation:mixed;dominant-baseline:auto;baseline-shift:baseline;text-anchor:start;white-space:normal;shape-padding:0;shape-margin:0;inline-size:0;clip-rule:nonzero;display:inline;overflow:visible;visibility:visible;isolation:auto;mix-blend-mode:normal;color-interpolation:sRGB;color-interpolation-filters:linearRGB;solid-color:#000000;solid-opacity:1;vector-effect:none;fill:#77767b;fill-opacity:1;fill-rule:nonzero;stroke:none;stroke-width:1.99999;stroke-linecap:round;stroke-linejoin:miter;stroke-miterlimit:4;stroke-dasharray:none;stroke-dashoffset:0;stroke-opacity:1;color-rendering:auto;image-rendering:auto;shape-rendering:auto;text-rendering:auto;enable-background:accumulate;stop-color:#000000;stop-opacity:1;opacity:1"
     d="M 31.984375 49.904297 C 30.918314 49.921333 29.945845 50.27896 29.107422 50.740234 C 28.273456 51.199056 27.566254 51.755851 26.898438 52.263672 C 26.231134 52.771102 25.594434 53.236116 24.943359 53.556641 C 24.298061 53.874322 23.620768 54.047734 23.011719 54.001953 C 22.489594 53.962706 21.934362 53.75786 21.400391 53.445312 C 20.862925 53.13072 20.337119 52.706487 19.78125 52.248047 C 19.225064 51.789346 18.633294 51.291019 17.9375 50.859375 C 17.238757 50.425901 16.431888 50.062977 15.521484 49.947266 C 14.455627 49.811796 13.424815 50.039655 12.521484 50.423828 C 11.623626 50.805673 10.851998 51.333922 10.146484 51.859375 C 9.1468206 52.603905 8.1960722 53.41395 7.3027344 54.283203 A 0.99999499 0.99999499 0 0 0 7.2832031 55.697266 A 0.99999499 0.99999499 0 0 0 8.6972656 55.716797 C 9.5276431 54.908807 10.410634 54.154948 11.339844 53.462891 C 11.994609 52.975234 12.641734 52.547569 13.304688 52.265625 C 13.962168 51.986009 14.652827 51.853258 15.269531 51.931641 C 15.797677 51.998767 16.349293 52.229572 16.882812 52.560547 C 17.41928 52.893351 17.945264 53.327067 18.507812 53.791016 C 19.070679 54.255226 19.676594 54.75198 20.390625 55.169922 C 21.108151 55.589909 21.937411 55.928597 22.861328 55.998047 C 23.940186 56.079143 24.954806 55.779545 25.828125 55.349609 C 26.695668 54.922517 27.429311 54.372603 28.109375 53.855469 C 28.788926 53.338725 29.423193 52.85124 30.072266 52.494141 C 30.716881 52.139493 31.389233 51.912354 32.015625 51.902344 C 32.648265 51.892234 33.333791 52.10138 33.990234 52.443359 C 34.651398 52.787798 35.298236 53.268427 35.984375 53.78125 C 36.670991 54.294429 37.405715 54.843858 38.269531 55.28125 C 39.138393 55.721197 40.142316 56.04226 41.222656 56 C 42.247067 55.959928 43.174596 55.601021 43.974609 55.148438 C 44.770502 54.698185 45.446699 54.15849 46.082031 53.664062 C 46.716906 53.169991 47.318364 52.716664 47.935547 52.396484 C 48.547627 52.078951 49.189679 51.892572 49.773438 51.912109 C 50.308994 51.930033 50.883431 52.122082 51.429688 52.429688 C 51.979939 52.739542 52.514181 53.166281 53.064453 53.638672 C 53.833478 54.298855 54.576978 54.989678 55.292969 55.707031 A 0.99999499 0.99999499 0 0 0 56.707031 55.707031 A 0.99999499 0.99999499 0 0 0 56.707031 54.292969 C 55.954778 53.539284 55.17516 52.814712 54.367188 52.121094 C 53.7884 51.624224 53.15845 51.107775 52.412109 50.6875 C 51.661774 50.264975 50.791487 49.943959 49.839844 49.912109 C 48.802735 49.8774 47.843131 50.191803 47.015625 50.621094 C 46.193221 51.047737 45.49852 51.583983 44.853516 52.085938 C 44.208969 52.587536 43.605895 53.057959 42.990234 53.40625 C 42.378694 53.75221 41.740656 53.976681 41.144531 54 C 40.516276 54.024576 39.830455 53.830529 39.173828 53.498047 C 38.512155 53.16301 37.864651 52.688218 37.181641 52.177734 C 36.498154 51.666894 35.769358 51.115495 34.914062 50.669922 C 34.054047 50.22189 33.061418 49.887085 31.984375 49.904297 z "
     id="path1690" />
  <path
     style="color:#000000;font-style:normal;font-variant:normal;font-weight:normal;font-stretch:normal;font-size:medium;line-height:normal;font-family:sans-serif;font-variant-ligatures:normal;font-variant-position:normal;font-variant-caps:normal;font-variant-numeric:normal;font-variant-alternates:normal;font-variant-east-asian:normal;font-feature-settings:normal;font-variation-settings:normal;text-indent:0;text-align:start;text-decoration:none;text-decoration-line:none;text-decoration-style:solid;text-decoration-color:#000000;letter-spacing:normal;word-spacing:normal;text-transform:none;writing-mode:lr-tb;direction:ltr;text-orientation:mixed;dominant-baseline:auto;baseline-shift:baseline;text-anchor:start;white-space:normal;shape-padding:0;shape-margin:0;inline-size:0;clip-rule:nonzero;display:inline;overflow:visible;visibility:visible;isolation:auto;mix-blend-mode:normal;color-interpolation:sRGB;color-interpolation-filters:linearRGB;solid-color:#000000;solid-opacity:1;vector-effect:none;fill:#77767b;fill-opacity:1;fill-rule:nonzero;stroke:none;stroke-width:1.99999;stroke-linecap:round;stroke-linejoin:miter;stroke-miterlimit:4;stroke-dasharray:none;stroke-dashoffset:0;stroke-opacity:1;color-rendering:auto;image-rendering:auto;shape-rendering:auto;text-rendering:auto;enable-background:accumulate;stop-color:#000000;stop-opacity:1;opacity:1"
     d="M 31.984375 33.904297 C 30.918314 33.921333 29.945845 34.27896 29.107422 34.740234 C 28.273456 35.199056 27.566254 35.755851 26.898438 36.263672 C 26.231134 36.771102 25.594434 37.236116 24.943359 37.556641 C 24.298061 37.874322 23.620768 38.047734 23.011719 38.001953 C 22.489594 37.962706 21.934362 37.75786 21.400391 37.445312 C 20.862925 37.13072 20.337119 36.706487 19.78125 36.248047 C 19.225064 35.789346 18.633294 35.291019 17.9375 34.859375 C 17.238757 34.425901 16.431888 34.062977 15.521484 33.947266 C 14.455627 33.811796 13.424815 34.039655 12.521484 34.423828 C 11.623626 34.805673 10.851998 35.333922 10.146484 35.859375 C 9.1468206 36.603905 8.1960722 37.41395 7.3027344 38.283203 A 0.99999499 0.99999499 0 0 0 7.2832031 39.697266 A 0.99999499 0.99999499 0 0 0 8.6972656 39.716797 C 9.5276431 38.908807 10.410634 38.154948 11.339844 37.462891 C 11.994609 36.975234 12.641734 36.547569 13.304688 36.265625 C 13.962168 35.986009 14.652827 35.853258 15.269531 35.931641 C 15.797677 35.998767 16.349293 36.229572 16.882812 36.560547 C 17.41928 36.893351 17.945264 37.327067 18.507812 37.791016 C 19.070679 38.255226 19.676594 38.75198 20.390625 39.169922 C 21.108151 39.589909 21.937411 39.928597 22.861328 39.998047 C 23.940186 40.079143 24.954806 39.779545 25.828125 39.349609 C 26.695668 38.922517 27.429311 38.372603 28.109375 37.855469 C 28.788926 37.338725 29.423193 36.85124 30.072266 36.494141 C 30.716881 36.139493 31.389233 35.912354 32.015625 35.902344 C 32.648265 35.892234 33.333791 36.10138 33.990234 36.443359 C 34.651398 36.787798 35.298236 37.268427 35.984375 37.78125 C 36.670991 38.294429 37.405715 38.843858 38.269531 39.28125 C 39.138393 39.721197 40.142316 40.04226 41.222656 40 C 42.247067 39.959928 43.174596 39.601021 43.974609 39.148438 C 44.770502 38.698185 45.446699 38.15849 46.082031 37.664062 C 46.716906 37.169991 47.318364 36.716664 47.935547 36.396484 C 48.547627 36.078951 49.189679 35.892572 49.773438 35.912109 C 50.308994 35.930033 50.883431 36.122082 51.429688 36.429688 C 51.979939 36.739542 52.514181 37.166281 53.064453 37.638672 C 53.833478 38.298855 54.576978 38.989678 55.292969 39.707031 A 0.99999499 0.99999499 0 0 0 56.707031 39.707031 A 0.99999499 0.99999499 0 0 0 56.707031 38.292969 C 55.954778 37.539284 55.17516 36.814712 54.367188 36.121094 C 53.7884 35.624224 53.15845 35.107775 52.412109 34.6875 C 51.661774 34.264975 50.791487 33.943959 49.839844 33.912109 C 48.802735 33.8774 47.843131 34.191803 47.015625 34.621094 C 46.193221 35.047737 45.49852 35.583983 44.853516 36.085938 C 44.208969 36.587536 43.605895 37.057959 42.990234 37.40625 C 42.378694 37.75221 41.740656 37.976681 41.144531 38 C 40.516276 38.024576 39.830455 37.830529 39.173828 37.498047 C 38.512155 37.16301 37.864651 36.688218 37.181641 36.177734 C 36.498154 35.666894 35.769358 35.115495 34.914062 34.669922 C 34.054047 34.22189 33.061418 33.887085 31.984375 33.904297 z "
     id="path1686" />
  <path
     style="color:#000000;font-style:normal;font-variant:normal;font-weight:normal;font-stretch:normal;font-size:medium;line-height:normal;font-family:sans-serif;font-variant-ligatures:normal;font-variant-position:normal;font-variant-caps:normal;font-variant-numeric:normal;font-variant-alternates:normal;font-variant-east-asian:normal;font-feature-settings:normal;font-variation-settings:normal;text-indent:0;text-align:start;text-decoration:none;text-decoration-line:none;text-decoration-style:solid;text-decoration-color:#000000;letter-spacing:normal;word-spacing:normal;text-transform:none;writing-mode:lr-tb;direction:ltr;text-orientation:mixed;dominant-baseline:auto;baseline-shift:baseline;text-anchor:start;white-space:normal;shape-padding:0;shape-margin:0;inline-size:0;clip-rule:nonzero;display:inline;overflow:visible;visibility:visible;isolation:auto;mix-blend-mode:normal;color-interpolation:sRGB;color-interpolation-filters:linearRGB;solid-color:#000000;solid-opacity:1;vector-effect:none;fill:#77767b;fill-opacity:1;fill-rule:nonzero;stroke:none;stroke-width:1.99999;stroke-linecap:round;stroke-linejoin:miter;stroke-miterlimit:4;stroke-dasharray:none;stroke-dashoffset:0;stroke-opacity:1;color-rendering:auto;image-rendering:auto;shape-rendering:auto;text-rendering:auto;enable-background:accumulate;stop-color:#000000;stop-opacity:1;opacity:1"
     d="M 49.839844 17.912109 C 48.802108 17.878183 47.840657 18.194349 47.013672 18.625 C 46.191813 19.052982 45.497789 19.589449 44.853516 20.091797 C 44.209704 20.593785 43.60949 21.064884 42.994141 21.412109 C 42.383 21.75696 41.745324 21.979423 41.150391 22 C 40.523049 22.021698 39.836597 21.82342 39.181641 21.486328 C 38.521575 21.146607 37.876526 20.666682 37.193359 20.152344 C 36.32934 19.501846 35.465518 18.851755 34.601562 18.201172 A 0.99999499 0.99999499 0 0 0 33.201172 18.398438 A 0.99999499 0.99999499 0 0 0 33.398438 19.798828 C 34.262445 20.449451 35.126162 21.099463 35.990234 21.75 C 36.67394 22.264744 37.404407 22.820422 38.265625 23.263672 C 39.131952 23.709551 40.136165 24.037444 41.21875 24 C 42.244841 23.96451 43.175085 23.60655 43.976562 23.154297 C 44.773832 22.704419 45.448672 22.16333 46.083984 21.667969 C 46.718836 21.172967 47.32074 20.719615 47.9375 20.398438 C 48.549134 20.07993 49.190046 19.893037 49.773438 19.912109 C 50.308612 19.929606 50.883599 20.122082 51.429688 20.429688 C 51.979795 20.739556 52.512219 21.166061 53.0625 21.638672 C 53.831488 22.299121 54.576715 22.989734 55.292969 23.707031 A 0.99999499 0.99999499 0 0 0 56.707031 23.707031 A 0.99999499 0.99999499 0 0 0 56.707031 22.292969 C 55.954717 21.539559 55.17489 20.814793 54.367188 20.121094 C 53.788555 19.624133 53.158578 19.107977 52.412109 18.6875 C 51.661622 18.26476 50.792 17.943238 49.839844 17.912109 z M 15.994141 18 A 0.99999499 0.99999499 0 0 0 15.935547 18.001953 C 13.919318 18.13077 11.946739 18.755354 10.222656 19.808594 C 9.1025815 20.492846 8.093108 21.351924 7.2402344 22.349609 A 0.99999499 0.99999499 0 0 0 7.3496094 23.759766 A 0.99999499 0.99999499 0 0 0 8.7597656 23.650391 C 9.4750245 22.813686 10.326279 22.087517 11.265625 21.513672 C 12.708751 20.632068 14.376788 20.105872 16.064453 19.998047 A 0.99999499 0.99999499 0 0 0 16.998047 18.935547 A 0.99999499 0.99999499 0 0 0 15.994141 18 z "
     id="path1682" />
  <path
     style="color:#000000;font-style:normal;font-variant:normal;font-weight:normal;font-stretch:normal;font-size:medium;line-height:normal;font-family:sans-serif;font-variant-ligatures:normal;font-variant-position:normal;font-variant-caps:normal;font-variant-numeric:normal;font-variant-alternates:normal;font-variant-east-asian:normal;font-feature-settings:normal;font-variation-settings:normal;text-indent:0;text-align:start;text-decoration:none;text-decoration-line:none;text-decoration-style:solid;text-decoration-color:#000000;letter-spacing:normal;word-spacing:normal;text-transform:none;writing-mode:lr-tb;direction:ltr;text-orientation:mixed;dominant-baseline:auto;baseline-shift:baseline;text-anchor:start;white-space:normal;shape-padding:0;shape-margin:0;inline-size:0;clip-rule:nonzero;display:inline;overflow:visible;visibility:visible;isolation:auto;mix-blend-mode:normal;color-interpolation:sRGB;color-interpolation-filters:linearRGB;solid-color:#000000;solid-opacity:1;vector-effect:none;fill:#77767b;fill-opacity:1;fill-rule:nonzero;stroke:none;stroke-width:1.99999;stroke-linecap:round;stroke-linejoin:miter;stroke-miterlimit:4;stroke-dasharray:none;stroke-dashoffset:0;stroke-opacity:1;color-rendering:auto;image-rendering:auto;shape-rendering:auto;text-rendering:auto;enable-background:accumulate;stop-color:#000000;stop-opacity:1;opacity:1"
     d="M 25.5 6.8789062 L 25.048828 7.1074219 C 18.616359 10.357512 15 18.752596 15 28.599609 L 15 35.011719 A 0.99999499 0.99999499 0 0 0 16 36.011719 A 0.99999499 0.99999499 0 0 0 17 35.011719 L 17 28.599609 C 17 19.533001 20.339614 12.200594 25.5 9.25 C 30.660386 12.200594 34 19.533001 34 28.599609 L 34 35.876953 A 0.99999499 0.99999499 0 0 0 35 36.876953 A 0.99999499 0.99999499 0 0 0 36 35.876953 L 36 28.599609 C 36 18.752596 32.383641 10.357512 25.951172 7.1074219 L 25.5 6.8789062 z "
     id="path1678" />
  <path
     style="color:#000000;font-style:normal;font-variant:normal;font-weight:normal;font-stretch:normal;font-size:medium;line-height:normal;font-family:sans-serif;font-variant-ligatures:normal;font-variant-position:normal;font-variant-caps:normal;font-variant-numeric:normal;font-variant-alternates:normal;font-variant-east-asian:normal;font-feature-settings:normal;font-variation-settings:normal;text-indent:0;text-align:start;text-decoration:none;text-decoration-line:none;text-decoration-style:solid;text-decoration-color:#000000;letter-spacing:normal;word-spacing:normal;text-transform:none;writing-mode:lr-tb;direction:ltr;text-orientation:mixed;dominant-baseline:auto;baseline-shift:baseline;text-anchor:start;white-space:normal;shape-padding:0;shape-margin:0;inline-size:0;clip-rule:nonzero;display:inline;overflow:visible;visibility:visible;isolation:auto;mix-blend-mode:normal;color-interpolation:sRGB;color-interpolation-filters:linearRGB;solid-color:#000000;solid-opacity:1;vector-effect:none;fill:#77767b;fill-opacity:1;fill-rule:nonzero;stroke:none;stroke-width:2;stroke-linecap:round;stroke-linejoin:miter;stroke-miterlimit:4;stroke-dasharray:none;stroke-dashoffset:0;stroke-opacity:1;color-rendering:auto;image-rendering:auto;shape-rendering:auto;text-rendering:auto;enable-background:accumulate;stop-color:#000000;stop-opacity:1;opacity:1"
     d="M 22.943359 19.023438 C 21.854509 19.023437 20.94922 19.926775 20.949219 21.015625 C 20.949218 22.104476 21.854509 23.009766 22.943359 23.009766 C 24.03221 23.009766 24.935547 22.104476 24.935547 21.015625 C 24.935546 19.926775 24.032209 19.023437 22.943359 19.023438 z M 22.943359 21.009766 C 22.935389 21.009766 22.949219 21.023595 22.949219 21.015625 C 22.949219 21.007655 22.935389 21.023437 22.943359 21.023438 C 22.95133 21.023437 22.935547 21.007655 22.935547 21.015625 C 22.935547 21.023595 22.95133 21.009766 22.943359 21.009766 z "
     id="path1674" />
</svg>
