<?xml version="1.0" encoding="UTF-8" standalone="no"?>
<svg
   xmlns:dc="http://purl.org/dc/elements/1.1/"
   xmlns:cc="http://creativecommons.org/ns#"
   xmlns:rdf="http://www.w3.org/1999/02/22-rdf-syntax-ns#"
   xmlns:svg="http://www.w3.org/2000/svg"
   xmlns="http://www.w3.org/2000/svg"
   xmlns:sodipodi="http://sodipodi.sourceforge.net/DTD/sodipodi-0.dtd"
   xmlns:inkscape="http://www.inkscape.org/namespaces/inkscape"
   width="16"
   height="16"
   version="1.1"
   id="svg6"
   sodipodi:docname="com.rafaelmardojai.Blanket-sound-wave.svg"
   inkscape:version="1.0 (4035a4fb49, 2020-05-01)">
  <metadata
     id="metadata12">
    <rdf:RDF>
      <cc:Work
         rdf:about="">
        <dc:format>image/svg+xml</dc:format>
        <dc:type
           rdf:resource="http://purl.org/dc/dcmitype/StillImage" />
      </cc:Work>
    </rdf:RDF>
  </metadata>
  <defs
     id="defs10" />
  <sodipodi:namedview
     inkscape:document-rotation="0"
     pagecolor="#ffffff"
     bordercolor="#666666"
     borderopacity="1"
     objecttolerance="10"
     gridtolerance="10"
     guidetolerance="10"
     inkscape:pageopacity="0"
     inkscape:pageshadow="2"
     inkscape:window-width="1920"
     inkscape:window-height="1043"
     id="namedview8"
     showgrid="true"
     inkscape:zoom="16"
     inkscape:cx="-4.4680803"
     inkscape:cy="9.8795863"
     inkscape:window-x="1920"
     inkscape:window-y="0"
     inkscape:window-maximized="1"
     inkscape:current-layer="svg6">
    <inkscape:grid
       id="grid853"
       type="xygrid" />
  </sodipodi:namedview>
  <g
     color="#bebebe"
     fill="#2e3436"
     id="g4"
     style="fill:#1a5fb4;fill-opacity:1">
    <path
       d="M1.5 7.989c.277 0 .5.223.5.5v1a.499.499 0 1 1-1 0v-1c0-.277.223-.5.5-.5zM3.5 6.989c.277 0 .5.223.5.5v3a.499.499 0 1 1-1 0v-3c0-.277.223-.5.5-.5zM5.5 3.989c.277 0 .5.223.5.5v8a.499.499 0 1 1-1 0v-8c0-.277.223-.5.5-.5zM7.5 5.989c.277 0 .5.223.5.5v4a.499.499 0 1 1-1 0v-4c0-.277.223-.5.5-.5zM11.5 5.989c.277 0 .5.223.5.5v4a.499.499 0 1 1-1 0v-4c0-.277.223-.5.5-.5zM9.5 4.989c.277 0 .5.223.5.5v6a.499.499 0 1 1-1 0v-6c0-.277.223-.5.5-.5zM13.5 7.989c.277 0 .5.223.5.5v1a.499.499 0 1 1-1 0v-1c0-.277.223-.5.5-.5z"
       style="marker:none;fill:#1a5fb4;fill-opacity:1"
       id="path2" />
  </g>
  <g
     transform="translate(0,-1.1131252)"
     style="fill:#3584e4;fill-opacity:1"
     id="g851"
     fill="#2e3436"
     color="#bebebe">
    <path
       id="path849"
       style="fill:#3584e4;fill-opacity:1;marker:none"
       d="m 1.5,8.1212398 c 0.277,0 0.5,0.223 0.5,0.5 v 1 a 0.5,0.5 0 1 1 -1,0 v -1 c 0,-0.277 0.223,-0.5 0.5,-0.5 z m 2,-1 c 0.277,0 0.5,0.223 0.5,0.5 V 10.62124 a 0.5,0.5 0 1 1 -1,0 V 7.6212398 c 0,-0.277 0.223,-0.5 0.5,-0.5 z m 2,-3 c 0.277,0 0.5,0.223 0.5,0.5 V 12.62124 a 0.5,0.5 0 1 1 -1,0 V 4.6212398 c 0,-0.277 0.223,-0.5 0.5,-0.5 z m 2,2 c 0.277,0 0.5,0.223 0.5,0.5 V 10.62124 a 0.5,0.5 0 1 1 -1,0 V 6.6212398 c 0,-0.277 0.223,-0.5 0.5,-0.5 z m 4,0 c 0.277,0 0.5,0.223 0.5,0.5 V 10.62124 a 0.5,0.5 0 1 1 -1,0 V 6.6212398 c 0,-0.277 0.223,-0.5 0.5,-0.5 z m -2,-1 c 0.277,0 0.5,0.223 0.5,0.5 V 11.62124 a 0.5,0.5 0 1 1 -1,0 V 5.6212398 c 0,-0.277 0.223,-0.5 0.5,-0.5 z m 4,3 c 0.277,0 0.5,0.223 0.5,0.5 v 1 a 0.5,0.5 0 1 1 -1,0 v -1 c 0,-0.277 0.223,-0.5 0.5,-0.5 z" />
  </g>
</svg>
