<?xml version="1.0" encoding="UTF-8" standalone="no"?>
<svg
   xmlns:dc="http://purl.org/dc/elements/1.1/"
   xmlns:cc="http://creativecommons.org/ns#"
   xmlns:rdf="http://www.w3.org/1999/02/22-rdf-syntax-ns#"
   xmlns:svg="http://www.w3.org/2000/svg"
   xmlns="http://www.w3.org/2000/svg"
   xmlns:xlink="http://www.w3.org/1999/xlink"
   xmlns:sodipodi="http://sodipodi.sourceforge.net/DTD/sodipodi-0.dtd"
   xmlns:inkscape="http://www.inkscape.org/namespaces/inkscape"
   height="64"
   width="64"
   version="1.1"
   id="svg57"
   sodipodi:docname="com.rafaelmardojai.Blanket-sound-wave-symbolic.svg"
   inkscape:version="1.0.1 (3bc2e813f5, 2020-09-07)">
  <metadata
     id="metadata61">
    <rdf:RDF>
      <cc:Work
         rdf:about="">
        <dc:format>image/svg+xml</dc:format>
        <dc:type
           rdf:resource="http://purl.org/dc/dcmitype/StillImage" />
        <dc:title />
      </cc:Work>
    </rdf:RDF>
  </metadata>
  <sodipodi:namedview
     pagecolor="#ffffff"
     bordercolor="#666666"
     borderopacity="1"
     objecttolerance="10"
     gridtolerance="10"
     guidetolerance="10"
     inkscape:pageopacity="0"
     inkscape:pageshadow="2"
     inkscape:window-width="640"
     inkscape:window-height="480"
     id="namedview59"
     showgrid="false"
     showguides="true"
     inkscape:guide-bbox="true"
     inkscape:current-layer="svg57"
     inkscape:document-rotation="0">
    <inkscape:grid
       type="xygrid"
       id="grid63"
       empspacing="8" />
    <sodipodi:guide
       position="8,0"
       orientation="1,0"
       id="guide65" />
    <sodipodi:guide
       position="72,8"
       orientation="0,-1"
       id="guide67" />
    <sodipodi:guide
       position="56,-16"
       orientation="1,0"
       id="guide69" />
  </sodipodi:namedview>
  <defs
     id="defs29">
    <inkscape:path-effect
       effect="fillet_chamfer"
       id="path-effect777"
       is_visible="true"
       lpeversion="1"
       satellites_param="F,0,0,1,0,0,0,1 @ F,0,0,1,0,4,0,1 @ F,0,0,1,0,3,0,1 @ F,0,0,1,0,3,0,1 @ F,0,0,1,0,3,0,1 @ F,0,0,1,0,3,0,1 @ F,0,0,1,0,3,0,1 @ F,0,0,1,0,3,0,1 @ F,0,0,1,0,3,0,1 @ F,0,0,1,0,3,0,1 @ F,0,0,1,0,3,0,1 @ F,0,0,1,0,4,0,1 @ F,0,0,1,0,3,0,1 @ F,0,0,1,0,0,0,1"
       unit="px"
       method="auto"
       mode="F"
       radius="0"
       chamfer_steps="1"
       flexible="false"
       use_knot_distance="true"
       apply_no_radius="true"
       apply_with_radius="true"
       only_selected="false"
       hide_knots="false" />
    <inkscape:path-effect
       effect="fillet_chamfer"
       id="path-effect4921"
       is_visible="true"
       lpeversion="1"
       satellites_param="F,0,1,1,0,0,0,1 @ F,0,0,1,0,10,0,1 @ F,0,0,1,0,13,0,1 @ F,0,0,1,0,12,0,1 @ F,0,0,1,0,4,0,1 @ F,0,0,1,0,4,0,1 @ F,0,0,1,0,4,0,1 @ F,0,0,1,0,4,0,1 @ F,0,0,1,0,4,0,1 @ F,0,0,1,0,4,0,1 @ F,0,0,1,0,6,0,1 @ F,0,0,1,0,6,0,1 @ F,0,0,1,0,0,0,1"
       unit="px"
       method="auto"
       mode="F"
       radius="0"
       chamfer_steps="1"
       flexible="false"
       use_knot_distance="true"
       apply_no_radius="true"
       apply_with_radius="true"
       only_selected="false"
       hide_knots="false" />
    <linearGradient
       id="b">
      <stop
         offset="0"
         stop-color="#646368"
         id="stop2" />
      <stop
         offset=".06"
         stop-color="#88878b"
         id="stop4" />
      <stop
         offset=".133"
         stop-color="#77767b"
         id="stop6" />
      <stop
         offset=".827"
         stop-color="#77767b"
         id="stop8" />
      <stop
         offset=".915"
         stop-color="#9f9ea2"
         id="stop10" />
      <stop
         offset="1"
         stop-color="#656468"
         id="stop12" />
    </linearGradient>
    <linearGradient
       id="a">
      <stop
         offset="0"
         stop-color="#3584e4"
         id="stop15" />
      <stop
         offset=".091"
         stop-color="#6ba5ec"
         id="stop17" />
      <stop
         offset=".173"
         stop-color="#3584e4"
         id="stop19" />
      <stop
         offset=".835"
         stop-color="#3584e4"
         id="stop21" />
      <stop
         offset=".922"
         stop-color="#8db9f0"
         id="stop23" />
      <stop
         offset="1"
         stop-color="#3584e4"
         id="stop25" />
    </linearGradient>
    <linearGradient
       xlink:href="#b"
       id="c"
       x1="7.165"
       y1="56.174"
       x2="120"
       y2="56.174"
       gradientUnits="userSpaceOnUse" />
  </defs>
  <g
     id="g1393"
     style="opacity:1">
    <path
       style="color:#000000;font-style:normal;font-variant:normal;font-weight:normal;font-stretch:normal;font-size:medium;line-height:normal;font-family:sans-serif;font-variant-ligatures:normal;font-variant-position:normal;font-variant-caps:normal;font-variant-numeric:normal;font-variant-alternates:normal;font-variant-east-asian:normal;font-feature-settings:normal;font-variation-settings:normal;text-indent:0;text-align:start;text-decoration:none;text-decoration-line:none;text-decoration-style:solid;text-decoration-color:#000000;letter-spacing:normal;word-spacing:normal;text-transform:none;writing-mode:lr-tb;direction:ltr;text-orientation:mixed;dominant-baseline:auto;baseline-shift:baseline;text-anchor:start;white-space:normal;shape-padding:0;shape-margin:0;inline-size:0;clip-rule:nonzero;display:inline;overflow:visible;visibility:visible;isolation:auto;mix-blend-mode:normal;color-interpolation:sRGB;color-interpolation-filters:linearRGB;solid-color:#000000;solid-opacity:1;vector-effect:none;fill:#000000;fill-opacity:0;fill-rule:nonzero;stroke:none;stroke-width:1.99999;stroke-linecap:round;stroke-linejoin:miter;stroke-miterlimit:4;stroke-dasharray:none;stroke-dashoffset:0;stroke-opacity:1.0;color-rendering:auto;image-rendering:auto;shape-rendering:auto;text-rendering:auto;enable-background:accumulate;stop-color:#000000;stop-opacity:1;"
       d="m 8,32 h 5 c 2.209139,0 4,1.790861 4,4 v 9 c 0,1.656854 1.343146,3 3,3 1.656854,0 3,-1.343146 3,-3 l 0,-33 c 0,-1.656854 1.343146,-3 3,-3 1.656854,0 3,1.343146 3,3 v 41 c 0,1.656854 1.343146,3 3,3 1.656854,0 3,-1.343146 3,-3 V 24 c 0,-1.656854 1.343146,-3 3,-3 1.656854,0 3,1.343146 3,3 v 23 c 0,1.656854 1.343146,3 3,3 1.932997,-0.276142 3.276142,-2.067003 3,-4 V 35 c 0,-1.656854 1.343146,-3 3,-3 h 6"
       id="path1395" />
    <path
       style="color:#000000;font-style:normal;font-variant:normal;font-weight:normal;font-stretch:normal;font-size:medium;line-height:normal;font-family:sans-serif;font-variant-ligatures:normal;font-variant-position:normal;font-variant-caps:normal;font-variant-numeric:normal;font-variant-alternates:normal;font-variant-east-asian:normal;font-feature-settings:normal;font-variation-settings:normal;text-indent:0;text-align:start;text-decoration:none;text-decoration-line:none;text-decoration-style:solid;text-decoration-color:#000000;letter-spacing:normal;word-spacing:normal;text-transform:none;writing-mode:lr-tb;direction:ltr;text-orientation:mixed;dominant-baseline:auto;baseline-shift:baseline;text-anchor:start;white-space:normal;shape-padding:0;shape-margin:0;inline-size:0;clip-rule:nonzero;display:inline;overflow:visible;visibility:visible;isolation:auto;mix-blend-mode:normal;color-interpolation:sRGB;color-interpolation-filters:linearRGB;solid-color:#000000;solid-opacity:1;vector-effect:none;fill:#77767b;fill-opacity:1;fill-rule:nonzero;stroke:none;stroke-width:1.99999;stroke-linecap:round;stroke-linejoin:miter;stroke-miterlimit:4;stroke-dasharray:none;stroke-dashoffset:0;stroke-opacity:1.0;color-rendering:auto;image-rendering:auto;shape-rendering:auto;text-rendering:auto;enable-background:accumulate;stop-color:#000000;stop-opacity:1;"
       d="M 26 8 C 23.802708 8 22 9.8027083 22 12 L 22 45 C 22 46.116417 21.116417 47 20 47 C 18.883583 47 18 46.116417 18 45 L 18 36 C 18 33.250424 15.749576 31 13 31 L 8 31 A 0.99999499 0.99999499 0 0 0 7 32 A 0.99999499 0.99999499 0 0 0 8 33 L 13 33 C 14.668702 33 16 34.331298 16 36 L 16 45 C 16 47.197292 17.802708 49 20 49 C 22.197292 49 24 47.197292 24 45 L 24 12 C 24 10.883583 24.883583 10 26 10 C 27.116417 10 28 10.883583 28 12 L 28 53 C 28 55.197292 29.802708 57 32 57 C 34.197292 57 36 55.197292 36 53 L 36 24 C 36 22.883583 36.883583 22 38 22 C 39.116417 22 40 22.883583 40 24 L 40 47 C 40 49.197292 41.802708 51 44 51 L 44.070312 51 L 44.140625 50.990234 C 46.608627 50.637663 48.342806 48.327377 47.990234 45.859375 L 48 46 L 48 35 C 48 33.883583 48.883583 33 50 33 L 56 33 A 0.99999499 0.99999499 0 0 0 57 32 A 0.99999499 0.99999499 0 0 0 56 31 L 50 31 C 47.802708 31 46 32.802708 46 35 L 46 46.070312 L 46.009766 46.140625 C 46.20543 47.510277 45.279434 48.732869 43.927734 48.970703 C 42.851669 48.927306 42 48.088019 42 47 L 42 24 C 42 21.802708 40.197292 20 38 20 C 35.802708 20 34 21.802708 34 24 L 34 53 C 34 54.116417 33.116417 55 32 55 C 30.883583 55 30 54.116417 30 53 L 30 12 C 30 9.8027083 28.197292 8 26 8 z "
       id="path1397" />
  </g>
</svg>
