<?xml version="1.0" encoding="UTF-8"?>
<svg height="128px" viewBox="0 0 128 128" width="128px" xmlns="http://www.w3.org/2000/svg" xmlns:xlink="http://www.w3.org/1999/xlink">
    <filter id="a" height="100%" width="100%" x="0%" y="0%">
        <feColorMatrix in="SourceGraphic" type="matrix" values="0 0 0 0 1 0 0 0 0 1 0 0 0 0 1 0 0 0 1 0"/>
    </filter>
    <mask id="b">
        <g filter="url(#a)">
            <rect fill-opacity="0.25" height="128" width="128"/>
        </g>
    </mask>
    <linearGradient id="c" gradientUnits="userSpaceOnUse">
        <stop offset="0" stop-color="#ffffff"/>
        <stop offset="1" stop-color="#ffffff" stop-opacity="0.094118"/>
    </linearGradient>
    <linearGradient id="d" gradientTransform="matrix(1 0 0 1.071429 8.000002 -174.000002)" x1="24" x2="40" xlink:href="#c" y1="266" y2="266"/>
    <clipPath id="e">
        <rect height="152" width="192"/>
    </clipPath>
    <mask id="f">
        <g filter="url(#a)">
            <rect fill-opacity="0.25" height="128" width="128"/>
        </g>
    </mask>
    <linearGradient id="g" x1="56" x2="112" xlink:href="#c" y1="106" y2="106"/>
    <clipPath id="h">
        <rect height="152" width="192"/>
    </clipPath>
    <path d="m 16 56 h 96 v 52 h -96 z m 0 0" fill="#cdab8f"/>
    <path d="m 26 80 h 12 c 1.105469 0 2 0.894531 2 2 v 26 c 0 1.105469 -0.894531 2 -2 2 h -12 c -1.105469 0 -2 -0.894531 -2 -2 v -26 c 0 -1.105469 0.894531 -2 2 -2 z m 0 0" fill="#3584e4"/>
    <g fill="#e01b24">
        <path d="m 24 56 v 9 c 0 3.878906 -3.566406 7 -8 7 s -8 -3.121094 -8 -7 v -9 z m 0 0"/>
        <path d="m 56 56 v 9 c 0 3.878906 -3.566406 7 -8 7 s -8 -3.121094 -8 -7 v -9 z m 0 0"/>
        <path d="m 88 56 v 8.980469 c 0 3.878906 -3.566406 7 -8 7 s -8 -3.121094 -8 -7 v -8.980469 z m 0 0"/>
        <path d="m 120 56 v 9 c 0 3.878906 -3.566406 7 -8 7 s -8 -3.121094 -8 -7 v -9 z m 0 0"/>
    </g>
    <path d="m 40 56 v 9 c 0 3.878906 -3.566406 7 -8 7 s -8 -3.121094 -8 -7 v -9 z m 0 0" fill="#f2f2f2"/>
    <path d="m 72 56 v 9 c 0 3.878906 -3.566406 7 -8 7 s -8 -3.121094 -8 -7 v -9 z m 0 0" fill="#f9f9f9"/>
    <path d="m 104 56 v 9 c 0 3.878906 -3.566406 7 -8 7 s -8 -3.121094 -8 -7 v -9 z m 0 0" fill="#f9f9f9"/>
    <path d="m 15 40 l -7 16 h 16 l 5 -16 z m 0 0" fill="#ed333b"/>
    <path d="m 29 40 l -5 16 h 16 l 3 -16 z m 0 0" fill="#ffffff"/>
    <path d="m 43 40 l -3 16 h 16 l 1 -16 z m 0 0" fill="#ed333b"/>
    <path d="m 71 40 l 1 16 h -16 l 1 -16 z m 0 0" fill="#ffffff"/>
    <path d="m 85 40 l 3 16 h -16 l -1 -16 z m 0 0" fill="#ed333b"/>
    <path d="m 85 40 h 14 l 5 16 h -16 z m 0 0" fill="#ffffff"/>
    <path d="m 113 40 l 7 16 h -16 l -5 -16 z m 0 0" fill="#ed333b"/>
    <path d="m 18 32 c -1.660156 0 -3 1.785156 -3 4 v 4 h 98 v -4 c 0 -2.214844 -1.339844 -4 -3 -4 z m 0 0" fill="#a51d2d"/>
    <path d="m 50 80 h 52 c 1.105469 0 2 0.894531 2 2 v 16 c 0 1.105469 -0.894531 2 -2 2 h -52 c -1.105469 0 -2 -0.894531 -2 -2 v -16 c 0 -1.105469 0.894531 -2 2 -2 z m 0 0" fill="#3584e4"/>
    <path d="m 82 31.0625 c 0 9.90625 -8.058594 17.9375 -18 17.9375 s -18 -8.03125 -18 -17.9375 c 0 -9.910156 8.058594 -17.941406 18 -17.941406 s 18 8.03125 18 17.941406 z m 0 0" fill="#986a44"/>
    <path d="m 82 30 c 0 9.941406 -8.058594 18 -18 18 s -18 -8.058594 -18 -18 s 8.058594 -18 18 -18 s 18 8.058594 18 18 z m 0 0" fill="#cdab8f"/>
    <path d="m 54.828125 33.839844 h 12.308594 c 1.351562 0 2.941406 1.179687 2.441406 2.433594 l -1.707031 4.300781 c -0.410156 1.03125 -0.898438 2.007812 -2.015625 2.007812 h -9.746094 c -1.113281 0 -1.601563 -0.976562 -2.011719 -2.007812 l -1.710937 -4.300781 c -0.496094 -1.253907 1.089843 -2.433594 2.441406 -2.433594 z m 0 0" fill="#deddda" fill-opacity="0.968504"/>
    <path d="m 62.546875 33.839844 c 1.351563 0 2.640625 1.097656 2.441406 2.433594 l -0.640625 4.300781 c -0.164062 1.097656 -0.898437 2.007812 -2.015625 2.007812 h 3.523438 c 1.117187 0 1.605469 -0.976562 2.015625 -2.007812 l 1.707031 -4.300781 c 0.5 -1.253907 -1.089844 -2.433594 -2.441406 -2.433594 z m 0 0" fill="#c0bfbc" fill-opacity="0.968504"/>
    <path d="m 56.445312 28.351562 s 4.378907 -0.105468 5.980469 -1.914062 c 1.601563 -1.808594 2.027344 -3.195312 2.988281 -3.195312 c 0.960938 0 -0.214843 2.449218 1.28125 2.449218 c 1.496094 0 3.097657 -3.722656 4.804688 -3.617187 s 1.175781 2.765625 0.535156 4.042969 c -0.640625 1.277343 -2.671875 2.980468 -2.671875 2.980468 z m 0 0" fill="#241f31"/>
    <path d="m 51.804688 28.457031 h 18.144531 c 0.445312 0 0.804687 0.355469 0.804687 0.792969 v 5.972656 c 0 0.4375 -0.359375 0.789063 -0.804687 0.789063 h -18.144531 c -0.445313 0 -0.804688 -0.351563 -0.804688 -0.789063 v -5.972656 c 0 -0.4375 0.359375 -0.792969 0.804688 -0.792969 z m 0 0" fill="#ffffff"/>
    <path d="m 3270.494047 -5967.993549 c 0 15.490781 -12.511871 28.008213 -27.98708 28.008213 s -28.023664 -12.517432 -28.023664 -28.008213 c 0 -15.454072 12.548455 -28.008212 28.023664 -28.008212 s 27.98708 12.55414 27.98708 28.008212 z m 0 0" fill="none" stroke="#f6f5f4" stroke-width="16" transform="matrix(0.106774 0 0 0.106414 -273.057892 667.313049)"/>
    <path d="m 62.261719 28.457031 c 0.445312 0 0.804687 0.355469 0.804687 0.792969 v 5.972656 c 0 0.4375 -0.359375 0.789063 -0.804687 0.789063 h 7.6875 c 0.445312 0 0.804687 -0.351563 0.804687 -0.789063 v -5.972656 c 0 -0.4375 -0.359375 -0.792969 -0.804687 -0.792969 z m 0 0" fill="#f6f5f4"/>
    <path d="m 64.566406 17.796875 c -0.601562 0.417969 -1.074218 1.507813 -1.5 2.574219 c -0.429687 1.0625 0.320313 1.277344 1.066406 0.746094 c 0.746094 -0.535157 2.769532 -1.417969 2.882813 -2.449219 c 0.109375 -1.003907 -1.222656 -1.722657 -2.449219 -0.871094 z m 0 0" fill="#241f31"/>
    <g clip-path="url(#e)" mask="url(#b)" transform="matrix(1 0 0 1 -8 -16)">
        <path d="m 33.894531 96 h 12.210938 c 1.046875 0 1.894531 0.894531 1.894531 2 v 26 c 0 1.105469 -0.847656 2 -1.894531 2 h -12.210938 c -1.046875 0 -1.894531 -0.894531 -1.894531 -2 v -26 c 0 -1.105469 0.847656 -2 1.894531 -2 z m 0 0" fill="url(#d)"/>
    </g>
    <path d="m 12 108 h 104 c 2.210938 0 4 1.789062 4 4 s -1.789062 4 -4 4 h -104 c -2.210938 0 -4 -1.789062 -4 -4 s 1.789062 -4 4 -4 z m 0 0" fill="#5e5c64"/>
    <path d="m 37 92 c 0.550781 0 1 0.449219 1 1 v 2 c 0 0.550781 -0.449219 1 -1 1 s -1 -0.449219 -1 -1 v -2 c 0 -0.550781 0.449219 -1 1 -1 z m 0 0"/>
    <g clip-path="url(#h)" mask="url(#f)" transform="matrix(1 0 0 1 -8 -16)">
        <path d="m 58 96 h 52 c 1.105469 0 2 0.894531 2 2 v 16 c 0 1.105469 -0.894531 2 -2 2 h -52 c -1.105469 0 -2 -0.894531 -2 -2 v -16 c 0 -1.105469 0.894531 -2 2 -2 z m 0 0" fill="url(#g)"/>
    </g>
</svg>
